<svg width="1917" height="1025" viewBox="0 0 1917 1025" fill="none" xmlns="http://www.w3.org/2000/svg">
<g clip-path="url(#clip0_922_19217)">
<rect x="-206.705" y="-239.375" width="2290.4" height="1521.9" fill="#2C0064"/>
<g filter="url(#filter0_f_922_19217)">
<ellipse cx="403.208" cy="614.222" rx="403.208" ry="614.222" transform="matrix(-0.36073 -0.939377 0.924155 -0.36528 361.544 1768.64)" fill="#6E00DC"/>
</g>
<mask id="mask0_922_19217" style="mask-type:alpha" maskUnits="userSpaceOnUse" x="-277" y="-281" width="2094" height="2441">
<path d="M1816.77 212.172L506.441 -280.319L-192.097 889.79L-276.045 1265.85L330.339 2065.73L947.907 2159.97L1452.89 1123.14L1816.77 212.172Z" fill="url(#paint0_linear_922_19217)"/>
</mask>
<g mask="url(#mask0_922_19217)">
<mask id="mask1_922_19217" style="mask-type:alpha" maskUnits="userSpaceOnUse" x="-423" y="-343" width="2253" height="2584">
<path d="M878.255 2240.76C301.419 1950.61 -393.102 1517.82 -422.769 1505.29L486.675 -342.279L1829.45 202.338L878.255 2240.76Z" fill="url(#paint1_linear_922_19217)"/>
</mask>
<g mask="url(#mask1_922_19217)">
<path d="M136.246 938.371C235.017 735.571 524.788 668.696 710.122 761.606C895.456 854.515 1098.69 1058.54 992.717 1276.12C940.202 1383.95 1000.33 1576.97 845.645 1658.81C688.182 1742.12 449.851 1585.75 356.359 1538.88C171.025 1445.97 37.4738 1141.17 136.246 938.371Z" fill="#6202FE"/>
<g filter="url(#filter1_f_922_19217)">
<path d="M150.937 948.756C256.867 731.258 493.174 656.057 637.061 728.189C780.949 800.321 929.808 977.041 823.878 1194.54C771.384 1302.32 807.574 1483.28 673.554 1575.41C537.127 1669.2 355.318 1541.18 282.734 1504.79C138.847 1432.66 45.0064 1166.25 150.937 948.756Z" fill="#6202FE"/>
</g>
<g filter="url(#filter2_f_922_19217)">
<path d="M154.144 942.17C272.871 698.398 556.018 623.283 733.688 712.35C911.358 801.417 1099.72 1010.28 980.996 1254.05C922.161 1374.85 990.664 1591.68 832.287 1690.85C671.064 1791.8 429.897 1629.57 340.271 1584.64C162.601 1495.57 35.4162 1185.94 154.144 942.17Z" fill="#6202FE"/>
</g>
<g filter="url(#filter3_f_922_19217)">
<path d="M225.926 943.035C420.688 666.215 796.848 544.615 1026.72 659.849C1256.58 775.083 1430.68 1052.42 1288.29 1344.77C1217.73 1489.65 1377.56 1801.49 1179.25 1916.23C977.389 2033.03 566.011 1805.21 450.054 1747.08C220.186 1631.84 0.304725 1263.72 225.926 943.035Z" fill="#6202FE"/>
</g>
<g filter="url(#filter4_f_922_19217)">
<path d="M322.581 893.407C475.898 578.615 914.999 433.599 1139.74 546.264C1364.49 658.93 1527.34 945.209 1374.02 1260C1298.04 1416 1291.57 1648.4 1089.38 1777.63C883.567 1909.18 372.756 1767.57 259.384 1710.74C34.6401 1598.07 169.264 1208.2 322.581 893.407Z" fill="#6202FE"/>
</g>
<g filter="url(#filter5_f_922_19217)">
<path d="M482.911 793.376C641.349 468.068 1080.66 339.866 1310.53 455.101C1540.4 570.335 1706.11 864.886 1547.67 1190.19C1469.16 1351.4 1040.95 1436.21 833.2 1570.35C621.717 1706.9 329.797 1505.4 213.84 1447.27C-16.0275 1332.04 324.472 1118.69 482.911 793.376Z" fill="#6202FE"/>
</g>
<g filter="url(#filter6_f_922_19217)">
<path d="M327.188 1019.73C465.822 735.083 888.086 641.889 1117.95 757.123C1347.82 872.357 1523.88 1145.66 1385.25 1430.31C1316.55 1571.36 1294.28 1773.28 1098.19 1883.48C898.578 1995.67 603.96 1799.71 488.003 1741.58C258.135 1626.34 188.554 1304.37 327.188 1019.73Z" fill="#6202FE"/>
</g>
</g>
</g>
<mask id="mask2_922_19217" style="mask-type:alpha" maskUnits="userSpaceOnUse" x="108" y="233" width="2529" height="1787">
<path d="M108.634 1742.03C183.879 1093.3 279.995 265.754 281.215 233.148L2636.52 510.431L2463.94 2019.31L108.634 1742.03Z" fill="url(#paint2_linear_922_19217)"/>
</mask>
<g mask="url(#mask2_922_19217)">
<path d="M1347.61 627.097C1613.26 658.371 1810.03 917.045 1786.2 1125.38C1762.37 1333.71 1623.57 1594.45 1338.55 1560.9C1197.31 1544.27 1009.89 1663.34 853.951 1539.84C695.211 1414.12 766.552 1134.56 778.572 1029.46C802.4 821.131 1081.96 595.824 1347.61 627.097Z" fill="#FE02A8"/>
<g filter="url(#filter7_f_922_19217)">
<path d="M1342.39 644.566C1627.29 678.106 1808.34 901.856 1787.85 1080.93C1767.37 1260.01 1633 1482.36 1348.1 1448.82C1206.92 1432.2 1021.27 1536.38 863.736 1427.46C703.37 1316.58 770.131 1076.91 780.463 986.576C800.945 807.5 1057.48 611.025 1342.39 644.566Z" fill="#FE02A8"/>
</g>
<g filter="url(#filter8_f_922_19217)">
<path d="M1351.02 645.582C1670.33 683.175 1870.7 956.341 1845.44 1177.12C1820.19 1397.9 1666.58 1673.45 1347.26 1635.85C1189.02 1617.23 977.001 1768.5 801.577 1636.43C623 1501.98 703.093 1187.31 715.831 1075.94C741.083 855.16 1031.7 607.99 1351.02 645.582Z" fill="#FE02A8"/>
</g>
<g filter="url(#filter9_f_922_19217)">
<path d="M1384.88 676.07C1772.93 776.638 2066.74 1101.43 2037.18 1359.83C2007.63 1618.22 1775.58 1874 1392.62 1828.91C1202.85 1806.57 926.677 2059.47 715.927 1904.25C501.39 1746.25 593.887 1399.98 608.795 1269.63C638.35 1011.24 935.346 559.567 1384.88 676.07Z" fill="#FE02A8"/>
</g>
<g filter="url(#filter10_f_922_19217)">
<path d="M1505.75 796.283C1918.09 844.827 2235 1219.53 2206.1 1472.17C2177.21 1724.8 1930.52 1972.54 1518.17 1924C1313.83 1899.94 1054.7 1967.15 826.321 1812.76C593.837 1655.6 689.44 1317.66 704.017 1190.22C732.912 937.585 1093.4 747.739 1505.75 796.283Z" fill="#FE02A8"/>
</g>
<g filter="url(#filter11_f_922_19217)">
<path d="M1654.7 916.018C2080.82 966.184 2408.72 1349.88 2379.17 1608.27C2349.61 1866.66 2095.01 2119.79 1668.89 2069.62C1457.72 2044.76 1190.05 2113.19 953.89 1954.98C713.484 1793.93 811.863 1448.35 826.772 1318C856.326 1059.61 1228.58 865.852 1654.7 916.018Z" fill="#FE02A8"/>
</g>
<g filter="url(#filter12_f_922_19217)">
<path d="M1338.9 837.192C1711.76 881.087 1993.8 1259.38 1964.24 1517.77C1934.69 1776.17 1707.92 2032.57 1335.06 1988.67C1150.29 1966.92 918.089 2009.24 713.286 1854.73C504.803 1697.43 595.924 1351 610.833 1220.65C640.387 962.259 966.042 793.297 1338.9 837.192Z" fill="#FE02A8"/>
</g>
</g>
<mask id="mask3_922_19217" style="mask-type:alpha" maskUnits="userSpaceOnUse" x="282" y="267" width="1644" height="2273">
<path d="M282.712 438.32C937.708 359.257 1652.65 273.236 1685.01 267.11L1925.42 2368.75L523.124 2539.96L282.712 438.32Z" fill="url(#paint3_linear_922_19217)"/>
</mask>
<g mask="url(#mask3_922_19217)">
<path d="M1620.09 1199.7C1637.56 1346.99 1502.11 1489.16 1367.5 1505.59C1232.9 1522.03 1049.18 1483.97 1030.43 1325.94C1021.14 1247.63 919.884 1163.53 975.879 1062.3C1032.88 959.26 1219.02 958.382 1286.92 950.091C1421.53 933.657 1602.62 1052.41 1620.09 1199.7Z" fill="#6202FE"/>
<g filter="url(#filter13_f_922_19217)">
<path d="M1608.35 1199.34C1627.09 1357.31 1523.93 1484.59 1419.43 1497.35C1314.93 1510.11 1170.72 1467.25 1151.98 1309.29C1142.69 1231.01 1058.84 1144.82 1099.85 1045.46C1141.6 944.323 1286.68 948.449 1339.4 942.013C1443.9 929.253 1589.61 1041.37 1608.35 1199.34Z" fill="#6202FE"/>
</g>
<g filter="url(#filter14_f_922_19217)">
<path d="M1608.92 1204.12C1629.92 1381.17 1501.01 1525.45 1371.98 1541.21C1242.94 1556.96 1065.67 1510.84 1044.67 1333.79C1034.26 1246.05 919.991 1151.93 971.885 1039.85C1024.71 925.753 1214.48 927.061 1279.58 919.114C1408.62 903.359 1587.92 1027.07 1608.92 1204.12Z" fill="#6202FE"/>
</g>
<g filter="url(#filter15_f_922_19217)">
<path d="M1569.2 1229.77C1560.14 1452.63 1396.6 1656.29 1229.65 1676.67C1062.7 1697.05 869.063 1608.14 843.876 1395.81C831.395 1290.59 633.393 1177.54 701.702 1042.37C771.237 904.782 1077.65 880.161 1161.87 869.879C1328.82 849.496 1579.7 971.596 1569.2 1229.77Z" fill="#6202FE"/>
</g>
<g filter="url(#filter16_f_922_19217)">
<path d="M1533.68 1292.2C1560.8 1520.83 1370.98 1760.24 1207.76 1780.17C1044.53 1800.1 853.9 1702.18 826.78 1473.55C813.341 1360.26 734.73 1230.3 800.047 1085.77C866.538 938.642 1197.06 830.502 1279.4 820.449C1442.63 800.52 1506.56 1063.57 1533.68 1292.2Z" fill="#6202FE"/>
</g>
<g filter="url(#filter17_f_922_19217)">
<path d="M1481.02 1405.46C1509.04 1641.73 1313.17 1871.99 1146.22 1892.37C979.267 1912.76 784.142 1811.34 756.116 1575.07C742.228 1457.99 947.352 1255.6 1013.99 1106.35C1081.82 954.411 1313.34 958.809 1397.56 948.526C1564.51 928.143 1452.99 1169.2 1481.02 1405.46Z" fill="#6202FE"/>
</g>
<g filter="url(#filter18_f_922_19217)">
<path d="M1486.49 1224.51C1511.01 1431.25 1312.12 1636.08 1145.17 1656.47C978.218 1676.85 784.924 1590.87 760.401 1384.13C748.249 1281.69 689.085 1162.72 757.785 1030.85C827.719 896.618 1058.76 896.991 1142.98 886.709C1309.93 866.326 1461.97 1017.78 1486.49 1224.51Z" fill="#6202FE"/>
</g>
</g>
<mask id="mask4_922_19217" style="mask-type:alpha" maskUnits="userSpaceOnUse" x="-982" y="-1100" width="1644" height="2274">
<path d="M-981.062 -928.328C-326.065 -1007.39 388.878 -1093.41 421.239 -1099.54L661.65 1002.1L-740.65 1173.31L-981.062 -928.328Z" fill="url(#paint4_linear_922_19217)"/>
</mask>
<g mask="url(#mask4_922_19217)">
<path d="M356.315 -166.954C373.787 -19.6633 238.334 122.506 103.728 138.94C-30.8772 155.375 -214.595 117.318 -233.341 -40.7122C-242.63 -119.024 -343.889 -203.123 -287.895 -304.348C-230.894 -407.391 -44.7544 -408.269 23.1475 -416.56C157.753 -432.994 338.844 -314.245 356.315 -166.954Z" fill="#6202FE"/>
<g filter="url(#filter19_f_922_19217)">
<path d="M344.576 -167.308C363.314 -9.34207 260.158 117.942 155.655 130.701C51.152 143.46 -93.0594 100.605 -111.797 -57.361C-121.082 -135.641 -204.932 -221.826 -163.924 -321.183C-122.178 -422.324 22.9047 -418.199 75.6215 -424.635C180.125 -437.394 325.839 -325.274 344.576 -167.308Z" fill="#6202FE"/>
</g>
<g filter="url(#filter20_f_922_19217)">
<path d="M345.144 -162.527C366.145 14.5217 237.241 158.804 108.202 174.559C-20.837 190.314 -198.101 144.19 -219.103 -32.8589C-229.51 -120.595 -343.782 -214.714 -291.888 -326.798C-239.062 -440.895 -49.2914 -439.587 15.8026 -447.535C144.842 -463.29 324.142 -339.576 345.144 -162.527Z" fill="#6202FE"/>
</g>
<g filter="url(#filter21_f_922_19217)">
<path d="M305.427 -136.879C296.366 85.9843 132.83 289.638 -34.1196 310.022C-201.069 330.405 -394.711 241.494 -419.898 29.1587C-432.379 -76.0636 -630.381 -189.113 -562.073 -324.276C-492.537 -461.868 -186.123 -486.488 -101.905 -496.771C65.0448 -517.154 315.924 -395.054 305.427 -136.879Z" fill="#6202FE"/>
</g>
<g filter="url(#filter22_f_922_19217)">
<path d="M269.906 -74.4537C297.026 154.175 107.211 393.591 -56.0172 413.52C-219.245 433.449 -409.874 335.533 -436.993 106.904C-450.432 -6.39324 -529.044 -136.351 -463.726 -280.881C-397.236 -428.008 -66.7092 -536.148 15.6313 -546.202C178.859 -566.131 242.786 -303.083 269.906 -74.4537Z" fill="#6202FE"/>
</g>
<g filter="url(#filter23_f_922_19217)">
<path d="M217.244 38.8135C245.27 275.081 49.3934 505.342 -117.556 525.725C-284.506 546.109 -479.631 444.692 -507.657 208.425C-521.545 91.3432 -316.422 -111.05 -249.785 -260.304C-181.95 -412.239 49.5678 -407.841 133.786 -418.123C300.736 -438.507 189.219 -197.454 217.244 38.8135Z" fill="#6202FE"/>
</g>
<g filter="url(#filter24_f_922_19217)">
<path d="M222.713 -142.135C247.236 64.5985 48.3433 269.435 -118.606 289.818C-285.556 310.201 -478.851 224.217 -503.373 17.4828C-515.526 -84.9638 -574.69 -203.931 -505.99 -335.797C-436.056 -470.031 -205.015 -469.658 -120.797 -479.941C46.1524 -500.324 198.191 -348.869 222.713 -142.135Z" fill="#6202FE"/>
</g>
</g>
<g filter="url(#filter25_f_922_19217)">
<ellipse cx="326.039" cy="502.877" rx="326.039" ry="502.877" transform="matrix(0.998015 -0.0629842 -0.0611986 -0.998126 861.511 406.712)" fill="#6202FE"/>
</g>
<mask id="mask5_922_19217" style="mask-type:alpha" maskUnits="userSpaceOnUse" x="819" y="-901" width="973" height="1762">
<path d="M819.081 -900.198L1736.96 -664.938L1791.98 212.621L1751.91 509.809L1279.21 860.82L881.645 734.16L826.124 -171.36L819.081 -900.198Z" fill="url(#paint5_linear_922_19217)"/>
</mask>
<g mask="url(#mask5_922_19217)">
</g>
<mask id="mask6_922_19217" style="mask-type:alpha" maskUnits="userSpaceOnUse" x="770" y="-809" width="1074" height="1633">
<path d="M866.481 823.515C1286.73 796.302 1822.83 761.503 1843.87 761.833L1747.58 -808.519L770.197 -746.836L866.481 823.515Z" fill="url(#paint6_linear_922_19217)"/>
</mask>
<g mask="url(#mask6_922_19217)">
<path d="M1669.81 110.311C1658.95 -66.8039 1499.29 -206.218 1364.34 -197.701C1229.39 -189.185 1056.69 -106.311 1068.34 83.7178C1074.12 177.887 990.919 297.918 1064.98 405.557C1140.37 515.13 1322.84 477.618 1390.91 473.322C1525.86 464.805 1680.66 287.426 1669.81 110.311Z" fill="#6202FE"/>
<g filter="url(#filter26_f_922_19217)">
<path d="M1658.38 113.162C1646.73 -76.7896 1509.01 -204.568 1393.01 -197.247C1277.01 -189.927 1129.18 -108.652 1140.83 81.2994C1146.6 175.43 1073.05 294.806 1137.67 402.995C1203.45 513.128 1360.07 477.257 1418.59 473.564C1534.59 466.244 1670.02 303.114 1658.38 113.162Z" fill="#6202FE"/>
</g>
<g filter="url(#filter27_f_922_19217)">
<path d="M1658.02 107.405C1644.97 -105.494 1476.11 -247.793 1333.1 -238.768C1190.09 -229.743 1007.34 -137.573 1020.39 75.3254C1026.86 180.827 922.073 316.035 1000.97 436.885C1081.29 559.907 1286.66 517.82 1358.8 513.268C1501.81 504.242 1671.08 320.304 1658.02 107.405Z" fill="#6202FE"/>
</g>
<g filter="url(#filter28_f_922_19217)">
<path d="M1639.58 83.9008C1588.38 -176.739 1389.55 -382.761 1222.17 -372.198C1054.8 -361.635 882.036 -216.804 897.691 38.5261C905.449 165.054 733.001 339.221 825.567 484.287C919.797 631.959 1145.94 582.757 1230.38 577.428C1397.75 566.865 1698.89 385.837 1639.58 83.9008Z" fill="#6202FE"/>
</g>
<g filter="url(#filter29_f_922_19217)">
<path d="M1566.41 -0.382871C1549.56 -275.306 1319.4 -498.376 1155.75 -488.049C992.108 -477.721 824.008 -322.907 840.864 -47.983C849.217 88.255 796.907 257.615 888.323 414.334C981.381 573.869 1202.27 522.317 1284.82 517.107C1448.47 506.78 1583.27 274.541 1566.41 -0.382871Z" fill="#6202FE"/>
</g>
<g filter="url(#filter30_f_922_19217)">
<path d="M1494.53 -103.259C1477.11 -387.367 1241.55 -618.034 1074.17 -607.471C906.799 -596.908 734.959 -437.039 752.379 -152.931C761.011 -12.142 707.616 162.834 801.221 324.843C896.508 489.763 1122.41 436.639 1206.85 431.31C1374.22 420.747 1511.95 180.849 1494.53 -103.259Z" fill="#6202FE"/>
</g>
<g filter="url(#filter31_f_922_19217)">
<path d="M1534.25 108.749C1519.01 -139.846 1285.32 -339.939 1117.95 -329.376C950.57 -318.813 777.592 -177.501 792.834 71.0935C800.387 194.284 765.036 346.67 857.359 487.771C951.341 631.407 1177.54 583.122 1261.98 577.794C1429.35 567.231 1549.49 357.343 1534.25 108.749Z" fill="#6202FE"/>
</g>
</g>
<g filter="url(#filter32_f_922_19217)">
<path d="M986.002 322.964C1038.51 340.56 1158.03 303.498 1283.62 254.984L1449.44 244.519C1593.68 235.416 1540.31 5.09308 1444.86 -183.215C1349.41 -371.524 1353.76 -366.878 1213.86 -353.129C1073.96 -339.381 1138.27 -438.146 1070.47 -550.712C1002.67 -663.279 1126.33 -426.579 1026.52 -288.675C926.714 -150.771 900.297 -236.175 1001.52 -42.0804C1102.73 152.014 1055.04 146.809 1004.2 156.167C953.348 165.526 949.734 106.716 902.926 115.82C856.119 124.924 879.266 149.292 909.838 228.54C940.409 307.787 933.497 305.369 986.002 322.964Z" fill="#50DFFF"/>
</g>
<mask id="mask7_922_19217" style="mask-type:alpha" maskUnits="userSpaceOnUse" x="380" y="-406" width="1494" height="1044">
<path d="M1873.38 -253.57L1558.51 637.703L849.598 577.88L613.616 498.606L380.976 -22.5165L537.468 -405.304L1280.45 -342.189L1873.38 -253.57Z" fill="url(#paint7_linear_922_19217)"/>
</mask>
<g mask="url(#mask7_922_19217)">
<mask id="mask8_922_19217" style="mask-type:alpha" maskUnits="userSpaceOnUse" x="394" y="-394" width="1403" height="1020">
<path d="M469.341 -393.005C434.769 32.7844 397.208 497.536 394.104 518.624L1721.28 625.635L1796.52 -285.994L469.341 -393.005Z" fill="url(#paint8_linear_922_19217)"/>
</mask>
<g mask="url(#mask8_922_19217)">
<path d="M937.885 468.443C1083.21 480.788 1217.97 338.692 1229.26 201.995C1240.54 65.2973 1196.52 -119.09 1040.6 -132.335C963.332 -138.899 877.059 -238.247 779.643 -177.973C680.477 -116.616 686.339 71.6274 680.648 140.584C669.366 277.282 792.562 456.098 937.885 468.443Z" fill="#6202FE"/>
<g filter="url(#filter33_f_922_19217)">
<path d="M937.111 456.591C1092.97 469.831 1214.28 360.929 1223.04 254.802C1231.79 148.675 1184.49 4.40693 1028.63 -8.83268C951.397 -15.3936 863.703 -97.063 767.581 -52.0088C669.733 -6.14518 679.027 140.403 674.608 193.939C665.849 300.067 781.255 443.352 937.111 456.591Z" fill="#6202FE"/>
</g>
<g filter="url(#filter34_f_922_19217)">
<path d="M941.828 456.992C1116.51 471.831 1253.59 336.281 1264.41 205.237C1275.22 74.1923 1223.51 -103.379 1048.82 -118.218C962.261 -125.571 865.674 -237.715 757.443 -181.194C647.267 -123.658 655.408 68.1766 649.952 134.282C639.137 265.327 767.145 442.153 941.828 456.992Z" fill="#6202FE"/>
</g>
<g filter="url(#filter35_f_922_19217)">
<path d="M965.589 415.908C1184.19 398.694 1378.35 225.982 1392.34 56.4378C1406.33 -113.106 1311.99 -305.691 1102.49 -323.488C998.678 -332.307 880.471 -528.428 750.16 -454.477C617.508 -379.197 604.391 -68.4831 597.333 17.0436C583.34 186.588 712.349 435.848 965.589 415.908Z" fill="#6202FE"/>
</g>
<g filter="url(#filter36_f_922_19217)">
<path d="M1025.63 377.733C1251.2 396.895 1479.54 196.319 1493.22 30.5542C1506.9 -135.21 1403.82 -324.423 1178.25 -343.585C1066.46 -353.081 935.96 -427.872 796.34 -356.607C654.211 -284.061 559.92 54.0502 553.018 137.67C539.338 303.435 800.053 358.571 1025.63 377.733Z" fill="#6202FE"/>
</g>
<g filter="url(#filter37_f_922_19217)">
<path d="M1134.99 320.391C1368.1 340.193 1587.23 133.819 1601.22 -35.7254C1615.21 -205.27 1508.54 -398.903 1275.43 -418.705C1159.91 -428.518 968.496 -213.8 824.283 -141.03C677.48 -66.9519 690.164 166.984 683.105 252.511C669.113 422.055 901.883 300.589 1134.99 320.391Z" fill="#6202FE"/>
</g>
<g filter="url(#filter38_f_922_19217)">
<path d="M957.436 332.464C1161.41 349.791 1355.44 141.285 1369.44 -28.2587C1383.43 -197.803 1291.98 -390.143 1088.01 -407.47C986.93 -416.056 867.924 -471.581 740.867 -397.353C611.528 -321.791 620.241 -88.1929 613.182 -2.66623C599.189 166.878 753.464 315.137 957.436 332.464Z" fill="#6202FE"/>
</g>
</g>
</g>
<mask id="mask9_922_19217" style="mask-type:alpha" maskUnits="userSpaceOnUse" x="327" y="-1142" width="1725" height="2011">
<path d="M2051.45 -748.363C1653.44 -875.873 852.594 -1132.92 833.315 -1141L327 475.815L1545.13 868.454L2051.45 -748.363Z" fill="url(#paint9_linear_922_19217)"/>
</mask>
<g mask="url(#mask9_922_19217)">
<path d="M675.184 -454.08C658.872 -273.382 712.53 -72.4842 840.252 -31.3157C967.975 9.85282 1158.7 -9.9389 1219.97 -205.591C1250.34 -302.546 1334.75 -271.951 1307.22 -407.643C1279.2 -545.772 1096.65 -575.258 1032.22 -596.025C904.497 -637.194 691.496 -634.778 675.184 -454.08Z" fill="#FF3093"/>
<path d="M676.065 -430.522C680.203 -125.897 704.195 -77.7225 813.981 -42.3353C923.767 -6.94821 1090.95 -34.2969 1152.19 -229.869C1182.54 -326.785 1257.08 -296.763 1238.47 -429.529C1219.52 -564.68 1058.32 -587.297 1002.94 -605.148C893.152 -640.535 666.695 -583.338 676.065 -430.522Z" fill="#FF3093"/>
<g filter="url(#filter40_f_922_19217)">
<path d="M684.959 -446.81C647.989 -96.1205 789.644 100.252 924.997 143.88C1060.35 187.508 1192.39 39.7346 1261.04 -179.464C1295.05 -288.087 1378.95 -181.188 1351.96 -331.968C1324.49 -485.456 1109.84 -547.388 1041.56 -569.396C906.205 -613.024 753.602 -666.008 684.959 -446.81Z" fill="#FF3093"/>
</g>
<g filter="url(#filter41_f_922_19217)">
<path d="M693.062 -416.347C655.781 -107.701 755.051 241.383 913.464 292.444C1071.88 343.505 1277.96 165.704 1360.28 -97.1812C1401.08 -227.453 1562.16 -134.844 1531.74 -315.046C1500.77 -498.485 1273.5 -532.3 1193.59 -558.058C1035.18 -609.118 730.344 -724.993 693.062 -416.347Z" fill="#FF3093"/>
</g>
<g filter="url(#filter42_f_922_19217)">
<path d="M705.775 -183.539C734.82 290.169 745.034 298.818 899.915 348.74C1054.8 398.663 1291.28 293.943 1379.93 10.8847C1423.85 -129.384 1406.94 -172.685 1382 -364.196C1356.61 -559.149 1091.19 -592.924 1013.06 -618.107C858.182 -668.03 688.932 -458.252 705.775 -183.539Z" fill="#FF3093"/>
</g>
<g filter="url(#filter43_f_922_19217)">
<path d="M755.947 -174.405C664.345 118.11 794.238 437.219 952.65 488.28C1111.06 539.341 1330.18 441.7 1421.78 149.185C1467.17 4.22981 1550.02 -239.503 1525.07 -437.149C1499.66 -638.346 1120.17 -495.369 1040.26 -521.127C881.846 -572.188 847.55 -466.92 755.947 -174.405Z" fill="#FF3093"/>
</g>
<g filter="url(#filter44_f_922_19217)">
<path d="M799.662 -402.533C719.51 -146.583 859.26 141.049 1017.67 192.11C1176.09 243.171 1389.22 164.634 1469.37 -91.3157C1509.09 -218.152 1523.8 -116.978 1492.1 -293.097C1459.84 -472.38 1232.86 -507.14 1152.95 -532.898C994.535 -583.958 879.814 -658.483 799.662 -402.533Z" fill="#FF3093"/>
</g>
</g>
<g opacity="0.6" filter="url(#filter45_f_922_19217)">
<path d="M1408.8 -94.4149C1395.43 -312.43 1186.17 -551.8 1076.87 -544.902C967.569 -538.004 708.804 -684.284 960.197 -159.024C973.564 58.9917 777.349 330.783 1125.28 244.602C1234.58 237.704 1100.35 17.9712 1408.8 -94.4149Z" fill="#0267FF"/>
</g>
</g>
<path d="M1916.5 0.5V825C1916.5 935.181 1827.18 1024.5 1717 1024.5H200C89.8192 1024.5 0.5 935.181 0.5 825V0.5H1916.5Z" stroke="black"/>
<defs>
<filter id="filter0_f_922_19217" x="-50.9205" y="476.685" width="1669.3" height="1377.67" filterUnits="userSpaceOnUse" color-interpolation-filters="sRGB">
<feFlood flood-opacity="0" result="BackgroundImageFix"/>
<feBlend mode="normal" in="SourceGraphic" in2="BackgroundImageFix" result="shape"/>
<feGaussianBlur stdDeviation="124.268" result="effect1_foregroundBlur_922_19217"/>
</filter>
<filter id="filter1_f_922_19217" x="95.5527" y="691.687" width="774.107" height="927.349" filterUnits="userSpaceOnUse" color-interpolation-filters="sRGB">
<feFlood flood-opacity="0" result="BackgroundImageFix"/>
<feBlend mode="normal" in="SourceGraphic" in2="BackgroundImageFix" result="shape"/>
<feGaussianBlur stdDeviation="4.97072" result="effect1_foregroundBlur_922_19217"/>
</filter>
<filter id="filter2_f_922_19217" x="73.1137" y="641.405" width="979.835" height="1116.75" filterUnits="userSpaceOnUse" color-interpolation-filters="sRGB">
<feFlood flood-opacity="0" result="BackgroundImageFix"/>
<feBlend mode="normal" in="SourceGraphic" in2="BackgroundImageFix" result="shape"/>
<feGaussianBlur stdDeviation="17.3975" result="effect1_foregroundBlur_922_19217"/>
</filter>
<filter id="filter3_f_922_19217" x="81.6718" y="566.835" width="1307.85" height="1431.94" filterUnits="userSpaceOnUse" color-interpolation-filters="sRGB">
<feFlood flood-opacity="0" result="BackgroundImageFix"/>
<feBlend mode="normal" in="SourceGraphic" in2="BackgroundImageFix" result="shape"/>
<feGaussianBlur stdDeviation="24.8536" result="effect1_foregroundBlur_922_19217"/>
</filter>
<filter id="filter4_f_922_19217" x="5.94914" y="374.136" width="1562.33" height="1592.01" filterUnits="userSpaceOnUse" color-interpolation-filters="sRGB">
<feFlood flood-opacity="0" result="BackgroundImageFix"/>
<feBlend mode="normal" in="SourceGraphic" in2="BackgroundImageFix" result="shape"/>
<feGaussianBlur stdDeviation="67.1047" result="effect1_foregroundBlur_922_19217"/>
</filter>
<filter id="filter5_f_922_19217" x="-196.545" y="80.5157" width="2139.83" height="1869.44" filterUnits="userSpaceOnUse" color-interpolation-filters="sRGB">
<feFlood flood-opacity="0" result="BackgroundImageFix"/>
<feBlend mode="normal" in="SourceGraphic" in2="BackgroundImageFix" result="shape"/>
<feGaussianBlur stdDeviation="166.519" result="effect1_foregroundBlur_922_19217"/>
</filter>
<filter id="filter6_f_922_19217" x="101.988" y="554.884" width="1486.42" height="1516.75" filterUnits="userSpaceOnUse" color-interpolation-filters="sRGB">
<feFlood flood-opacity="0" result="BackgroundImageFix"/>
<feBlend mode="normal" in="SourceGraphic" in2="BackgroundImageFix" result="shape"/>
<feGaussianBlur stdDeviation="77.0461" result="effect1_foregroundBlur_922_19217"/>
</filter>
<filter id="filter7_f_922_19217" x="747.992" y="630.854" width="1051.38" height="856.918" filterUnits="userSpaceOnUse" color-interpolation-filters="sRGB">
<feFlood flood-opacity="0" result="BackgroundImageFix"/>
<feBlend mode="normal" in="SourceGraphic" in2="BackgroundImageFix" result="shape"/>
<feGaussianBlur stdDeviation="4.97072" result="effect1_foregroundBlur_922_19217"/>
</filter>
<filter id="filter8_f_922_19217" x="652.15" y="606.971" width="1230.23" height="1118.89" filterUnits="userSpaceOnUse" color-interpolation-filters="sRGB">
<feFlood flood-opacity="0" result="BackgroundImageFix"/>
<feBlend mode="normal" in="SourceGraphic" in2="BackgroundImageFix" result="shape"/>
<feGaussianBlur stdDeviation="17.3975" result="effect1_foregroundBlur_922_19217"/>
</filter>
<filter id="filter9_f_922_19217" x="526.523" y="607.527" width="1562.42" height="1397.12" filterUnits="userSpaceOnUse" color-interpolation-filters="sRGB">
<feFlood flood-opacity="0" result="BackgroundImageFix"/>
<feBlend mode="normal" in="SourceGraphic" in2="BackgroundImageFix" result="shape"/>
<feGaussianBlur stdDeviation="24.8536" result="effect1_foregroundBlur_922_19217"/>
</filter>
<filter id="filter10_f_922_19217" x="538.032" y="654.463" width="1804.11" height="1409.88" filterUnits="userSpaceOnUse" color-interpolation-filters="sRGB">
<feFlood flood-opacity="0" result="BackgroundImageFix"/>
<feBlend mode="normal" in="SourceGraphic" in2="BackgroundImageFix" result="shape"/>
<feGaussianBlur stdDeviation="67.1047" result="effect1_foregroundBlur_922_19217"/>
</filter>
<filter id="filter11_f_922_19217" x="461.237" y="575.036" width="2252.82" height="1834.03" filterUnits="userSpaceOnUse" color-interpolation-filters="sRGB">
<feFlood flood-opacity="0" result="BackgroundImageFix"/>
<feBlend mode="normal" in="SourceGraphic" in2="BackgroundImageFix" result="shape"/>
<feGaussianBlur stdDeviation="166.519" result="effect1_foregroundBlur_922_19217"/>
</filter>
<filter id="filter12_f_922_19217" x="424.141" y="676.169" width="1696.32" height="1471.53" filterUnits="userSpaceOnUse" color-interpolation-filters="sRGB">
<feFlood flood-opacity="0" result="BackgroundImageFix"/>
<feBlend mode="normal" in="SourceGraphic" in2="BackgroundImageFix" result="shape"/>
<feGaussianBlur stdDeviation="77.0461" result="effect1_foregroundBlur_922_19217"/>
</filter>
<filter id="filter13_f_922_19217" x="1082.11" y="934.504" width="534.983" height="571.477" filterUnits="userSpaceOnUse" color-interpolation-filters="sRGB">
<feFlood flood-opacity="0" result="BackgroundImageFix"/>
<feBlend mode="normal" in="SourceGraphic" in2="BackgroundImageFix" result="shape"/>
<feGaussianBlur stdDeviation="3.25995" result="effect1_foregroundBlur_922_19217"/>
</filter>
<filter id="filter14_f_922_19217" x="935.615" y="894.943" width="698.383" height="671.963" filterUnits="userSpaceOnUse" color-interpolation-filters="sRGB">
<feFlood flood-opacity="0" result="BackgroundImageFix"/>
<feBlend mode="normal" in="SourceGraphic" in2="BackgroundImageFix" result="shape"/>
<feGaussianBlur stdDeviation="11.4098" result="effect1_foregroundBlur_922_19217"/>
</filter>
<filter id="filter15_f_922_19217" x="654.807" y="835.09" width="947.313" height="877.02" filterUnits="userSpaceOnUse" color-interpolation-filters="sRGB">
<feFlood flood-opacity="0" result="BackgroundImageFix"/>
<feBlend mode="normal" in="SourceGraphic" in2="BackgroundImageFix" result="shape"/>
<feGaussianBlur stdDeviation="16.2998" result="effect1_foregroundBlur_922_19217"/>
</filter>
<filter id="filter16_f_922_19217" x="686.413" y="731.364" width="937.891" height="1139.35" filterUnits="userSpaceOnUse" color-interpolation-filters="sRGB">
<feFlood flood-opacity="0" result="BackgroundImageFix"/>
<feBlend mode="normal" in="SourceGraphic" in2="BackgroundImageFix" result="shape"/>
<feGaussianBlur stdDeviation="44.0093" result="effect1_foregroundBlur_922_19217"/>
</filter>
<filter id="filter17_f_922_19217" x="537.027" y="728.901" width="1173.26" height="1384.44" filterUnits="userSpaceOnUse" color-interpolation-filters="sRGB">
<feFlood flood-opacity="0" result="BackgroundImageFix"/>
<feBlend mode="normal" in="SourceGraphic" in2="BackgroundImageFix" result="shape"/>
<feGaussianBlur stdDeviation="109.208" result="effect1_foregroundBlur_922_19217"/>
</filter>
<filter id="filter18_f_922_19217" x="624.079" y="783.812" width="965.53" height="976.631" filterUnits="userSpaceOnUse" color-interpolation-filters="sRGB">
<feFlood flood-opacity="0" result="BackgroundImageFix"/>
<feBlend mode="normal" in="SourceGraphic" in2="BackgroundImageFix" result="shape"/>
<feGaussianBlur stdDeviation="50.5292" result="effect1_foregroundBlur_922_19217"/>
</filter>
<filter id="filter19_f_922_19217" x="-181.669" y="-432.143" width="534.984" height="571.477" filterUnits="userSpaceOnUse" color-interpolation-filters="sRGB">
<feFlood flood-opacity="0" result="BackgroundImageFix"/>
<feBlend mode="normal" in="SourceGraphic" in2="BackgroundImageFix" result="shape"/>
<feGaussianBlur stdDeviation="3.25995" result="effect1_foregroundBlur_922_19217"/>
</filter>
<filter id="filter20_f_922_19217" x="-328.158" y="-471.705" width="698.382" height="671.964" filterUnits="userSpaceOnUse" color-interpolation-filters="sRGB">
<feFlood flood-opacity="0" result="BackgroundImageFix"/>
<feBlend mode="normal" in="SourceGraphic" in2="BackgroundImageFix" result="shape"/>
<feGaussianBlur stdDeviation="11.4098" result="effect1_foregroundBlur_922_19217"/>
</filter>
<filter id="filter21_f_922_19217" x="-608.968" y="-531.56" width="947.313" height="877.021" filterUnits="userSpaceOnUse" color-interpolation-filters="sRGB">
<feFlood flood-opacity="0" result="BackgroundImageFix"/>
<feBlend mode="normal" in="SourceGraphic" in2="BackgroundImageFix" result="shape"/>
<feGaussianBlur stdDeviation="16.2998" result="effect1_foregroundBlur_922_19217"/>
</filter>
<filter id="filter22_f_922_19217" x="-577.361" y="-635.287" width="937.891" height="1139.35" filterUnits="userSpaceOnUse" color-interpolation-filters="sRGB">
<feFlood flood-opacity="0" result="BackgroundImageFix"/>
<feBlend mode="normal" in="SourceGraphic" in2="BackgroundImageFix" result="shape"/>
<feGaussianBlur stdDeviation="44.0093" result="effect1_foregroundBlur_922_19217"/>
</filter>
<filter id="filter23_f_922_19217" x="-726.746" y="-637.748" width="1173.26" height="1384.44" filterUnits="userSpaceOnUse" color-interpolation-filters="sRGB">
<feFlood flood-opacity="0" result="BackgroundImageFix"/>
<feBlend mode="normal" in="SourceGraphic" in2="BackgroundImageFix" result="shape"/>
<feGaussianBlur stdDeviation="109.208" result="effect1_foregroundBlur_922_19217"/>
</filter>
<filter id="filter24_f_922_19217" x="-639.695" y="-582.838" width="965.53" height="976.631" filterUnits="userSpaceOnUse" color-interpolation-filters="sRGB">
<feFlood flood-opacity="0" result="BackgroundImageFix"/>
<feBlend mode="normal" in="SourceGraphic" in2="BackgroundImageFix" result="shape"/>
<feGaussianBlur stdDeviation="50.5292" result="effect1_foregroundBlur_922_19217"/>
</filter>
<filter id="filter25_f_922_19217" x="711.666" y="-735.716" width="888.923" height="1239.91" filterUnits="userSpaceOnUse" color-interpolation-filters="sRGB">
<feFlood flood-opacity="0" result="BackgroundImageFix"/>
<feBlend mode="normal" in="SourceGraphic" in2="BackgroundImageFix" result="shape"/>
<feGaussianBlur stdDeviation="58.7975" result="effect1_foregroundBlur_922_19217"/>
</filter>
<filter id="filter26_f_922_19217" x="1106.22" y="-202.25" width="557.559" height="689.007" filterUnits="userSpaceOnUse" color-interpolation-filters="sRGB">
<feFlood flood-opacity="0" result="BackgroundImageFix"/>
<feBlend mode="normal" in="SourceGraphic" in2="BackgroundImageFix" result="shape"/>
<feGaussianBlur stdDeviation="2.3519" result="effect1_foregroundBlur_922_19217"/>
</filter>
<filter id="filter27_f_922_19217" x="954.958" y="-255.637" width="720.239" height="795.956" filterUnits="userSpaceOnUse" color-interpolation-filters="sRGB">
<feFlood flood-opacity="0" result="BackgroundImageFix"/>
<feBlend mode="normal" in="SourceGraphic" in2="BackgroundImageFix" result="shape"/>
<feGaussianBlur stdDeviation="8.23164" result="effect1_foregroundBlur_922_19217"/>
</filter>
<filter id="filter28_f_922_19217" x="774.666" y="-396.106" width="896.053" height="1009.15" filterUnits="userSpaceOnUse" color-interpolation-filters="sRGB">
<feFlood flood-opacity="0" result="BackgroundImageFix"/>
<feBlend mode="normal" in="SourceGraphic" in2="BackgroundImageFix" result="shape"/>
<feGaussianBlur stdDeviation="11.7595" result="effect1_foregroundBlur_922_19217"/>
</filter>
<filter id="filter29_f_922_19217" x="769.918" y="-551.895" width="861.422" height="1144.54" filterUnits="userSpaceOnUse" color-interpolation-filters="sRGB">
<feFlood flood-opacity="0" result="BackgroundImageFix"/>
<feBlend mode="normal" in="SourceGraphic" in2="BackgroundImageFix" result="shape"/>
<feGaussianBlur stdDeviation="31.7506" result="effect1_foregroundBlur_922_19217"/>
</filter>
<filter id="filter30_f_922_19217" x="587.335" y="-765.397" width="1066.26" height="1366.62" filterUnits="userSpaceOnUse" color-interpolation-filters="sRGB">
<feFlood flood-opacity="0" result="BackgroundImageFix"/>
<feBlend mode="normal" in="SourceGraphic" in2="BackgroundImageFix" result="shape"/>
<feGaussianBlur stdDeviation="78.7886" result="effect1_foregroundBlur_922_19217"/>
</filter>
<filter id="filter31_f_922_19217" x="718.986" y="-402.685" width="889.475" height="1065.43" filterUnits="userSpaceOnUse" color-interpolation-filters="sRGB">
<feFlood flood-opacity="0" result="BackgroundImageFix"/>
<feBlend mode="normal" in="SourceGraphic" in2="BackgroundImageFix" result="shape"/>
<feGaussianBlur stdDeviation="36.4544" result="effect1_foregroundBlur_922_19217"/>
</filter>
<filter id="filter32_f_922_19217" x="796.357" y="-660.133" width="821.925" height="1067.51" filterUnits="userSpaceOnUse" color-interpolation-filters="sRGB">
<feFlood flood-opacity="0" result="BackgroundImageFix"/>
<feBlend mode="normal" in="SourceGraphic" in2="BackgroundImageFix" result="shape"/>
<feGaussianBlur stdDeviation="39.9823" result="effect1_foregroundBlur_922_19217"/>
</filter>
<filter id="filter33_f_922_19217" x="669.437" y="-70.205" width="559.305" height="532.597" filterUnits="userSpaceOnUse" color-interpolation-filters="sRGB">
<feFlood flood-opacity="0" result="BackgroundImageFix"/>
<feBlend mode="normal" in="SourceGraphic" in2="BackgroundImageFix" result="shape"/>
<feGaussianBlur stdDeviation="2.3519" result="effect1_foregroundBlur_922_19217"/>
</filter>
<filter id="filter34_f_922_19217" x="632.851" y="-213.518" width="649.385" height="688.091" filterUnits="userSpaceOnUse" color-interpolation-filters="sRGB">
<feFlood flood-opacity="0" result="BackgroundImageFix"/>
<feBlend mode="normal" in="SourceGraphic" in2="BackgroundImageFix" result="shape"/>
<feGaussianBlur stdDeviation="8.23164" result="effect1_foregroundBlur_922_19217"/>
</filter>
<filter id="filter35_f_922_19217" x="572.785" y="-494.627" width="844.426" height="935.179" filterUnits="userSpaceOnUse" color-interpolation-filters="sRGB">
<feFlood flood-opacity="0" result="BackgroundImageFix"/>
<feBlend mode="normal" in="SourceGraphic" in2="BackgroundImageFix" result="shape"/>
<feGaussianBlur stdDeviation="11.7595" result="effect1_foregroundBlur_922_19217"/>
</filter>
<filter id="filter36_f_922_19217" x="489.001" y="-450.583" width="1068.92" height="893.092" filterUnits="userSpaceOnUse" color-interpolation-filters="sRGB">
<feFlood flood-opacity="0" result="BackgroundImageFix"/>
<feBlend mode="normal" in="SourceGraphic" in2="BackgroundImageFix" result="shape"/>
<feGaussianBlur stdDeviation="31.7506" result="effect1_foregroundBlur_922_19217"/>
</filter>
<filter id="filter37_f_922_19217" x="524.927" y="-576.608" width="1235.08" height="1078.36" filterUnits="userSpaceOnUse" color-interpolation-filters="sRGB">
<feFlood flood-opacity="0" result="BackgroundImageFix"/>
<feBlend mode="normal" in="SourceGraphic" in2="BackgroundImageFix" result="shape"/>
<feGaussianBlur stdDeviation="78.7886" result="effect1_foregroundBlur_922_19217"/>
</filter>
<filter id="filter38_f_922_19217" x="539.392" y="-508.383" width="904.344" height="914.769" filterUnits="userSpaceOnUse" color-interpolation-filters="sRGB">
<feFlood flood-opacity="0" result="BackgroundImageFix"/>
<feBlend mode="normal" in="SourceGraphic" in2="BackgroundImageFix" result="shape"/>
<feGaussianBlur stdDeviation="36.4544" result="effect1_foregroundBlur_922_19217"/>
</filter>
<filter id="filter40_f_922_19217" x="662.534" y="-624.946" width="711.152" height="792.936" filterUnits="userSpaceOnUse" color-interpolation-filters="sRGB">
<feFlood flood-opacity="0" result="BackgroundImageFix"/>
<feBlend mode="normal" in="SourceGraphic" in2="BackgroundImageFix" result="shape"/>
<feGaussianBlur stdDeviation="8.23164" result="effect1_foregroundBlur_922_19217"/>
</filter>
<filter id="filter41_f_922_19217" x="661.7" y="-645.788" width="897.355" height="970.506" filterUnits="userSpaceOnUse" color-interpolation-filters="sRGB">
<feFlood flood-opacity="0" result="BackgroundImageFix"/>
<feBlend mode="normal" in="SourceGraphic" in2="BackgroundImageFix" result="shape"/>
<feGaussianBlur stdDeviation="11.7595" result="effect1_foregroundBlur_922_19217"/>
</filter>
<filter id="filter42_f_922_19217" x="641.112" y="-688.989" width="829.469" height="1113.22" filterUnits="userSpaceOnUse" color-interpolation-filters="sRGB">
<feFlood flood-opacity="0" result="BackgroundImageFix"/>
<feBlend mode="normal" in="SourceGraphic" in2="BackgroundImageFix" result="shape"/>
<feGaussianBlur stdDeviation="31.7506" result="effect1_foregroundBlur_922_19217"/>
</filter>
<filter id="filter43_f_922_19217" x="567.968" y="-704.137" width="1119.26" height="1362.92" filterUnits="userSpaceOnUse" color-interpolation-filters="sRGB">
<feFlood flood-opacity="0" result="BackgroundImageFix"/>
<feBlend mode="normal" in="SourceGraphic" in2="BackgroundImageFix" result="shape"/>
<feGaussianBlur stdDeviation="78.7886" result="effect1_foregroundBlur_922_19217"/>
</filter>
<filter id="filter44_f_922_19217" x="703.44" y="-656.742" width="878.781" height="936.502" filterUnits="userSpaceOnUse" color-interpolation-filters="sRGB">
<feFlood flood-opacity="0" result="BackgroundImageFix"/>
<feBlend mode="normal" in="SourceGraphic" in2="BackgroundImageFix" result="shape"/>
<feGaussianBlur stdDeviation="36.4544" result="effect1_foregroundBlur_922_19217"/>
</filter>
<filter id="filter45_f_922_19217" x="755.044" y="-657.374" width="752.536" height="1017.12" filterUnits="userSpaceOnUse" color-interpolation-filters="sRGB">
<feFlood flood-opacity="0" result="BackgroundImageFix"/>
<feBlend mode="normal" in="SourceGraphic" in2="BackgroundImageFix" result="shape"/>
<feGaussianBlur stdDeviation="49.3899" result="effect1_foregroundBlur_922_19217"/>
</filter>
<linearGradient id="paint0_linear_922_19217" x1="593.293" y1="760.094" x2="316.612" y2="1448.94" gradientUnits="userSpaceOnUse">
<stop stop-color="#C4C4C4"/>
<stop offset="0.943414" stop-color="#C4C4C4" stop-opacity="0"/>
</linearGradient>
<linearGradient id="paint1_linear_922_19217" x1="351.092" y1="1049.6" x2="1075.55" y2="1500.79" gradientUnits="userSpaceOnUse">
<stop stop-color="#C4C4C4"/>
<stop offset="1" stop-color="#C4C4C4" stop-opacity="0"/>
</linearGradient>
<linearGradient id="paint2_linear_922_19217" x1="1238.64" y1="588.111" x2="1147.37" y2="1660.58" gradientUnits="userSpaceOnUse">
<stop stop-color="#C4C4C4"/>
<stop offset="1" stop-color="#C4C4C4" stop-opacity="0"/>
</linearGradient>
<linearGradient id="paint3_linear_922_19217" x1="1392.74" y1="1160.28" x2="522.015" y2="1173.32" gradientUnits="userSpaceOnUse">
<stop stop-color="#C4C4C4"/>
<stop offset="1" stop-color="#C4C4C4" stop-opacity="0"/>
</linearGradient>
<linearGradient id="paint4_linear_922_19217" x1="128.964" y1="-206.371" x2="-741.759" y2="-193.333" gradientUnits="userSpaceOnUse">
<stop stop-color="#C4C4C4"/>
<stop offset="1" stop-color="#C4C4C4" stop-opacity="0"/>
</linearGradient>
<linearGradient id="paint5_linear_922_19217" x1="1314.95" y1="136.649" x2="1021.35" y2="538.062" gradientUnits="userSpaceOnUse">
<stop stop-color="#C4C4C4"/>
<stop offset="1" stop-color="#C4C4C4" stop-opacity="0"/>
</linearGradient>
<linearGradient id="paint6_linear_922_19217" x1="1648.78" y1="115.035" x2="955.104" y2="135.751" gradientUnits="userSpaceOnUse">
<stop stop-color="#C4C4C4"/>
<stop offset="1" stop-color="#C4C4C4" stop-opacity="0"/>
</linearGradient>
<linearGradient id="paint7_linear_922_19217" x1="1190.64" y1="268.904" x2="717.307" y2="190.975" gradientUnits="userSpaceOnUse">
<stop stop-color="#C4C4C4"/>
<stop offset="0.943414" stop-color="#C4C4C4" stop-opacity="0"/>
</linearGradient>
<linearGradient id="paint8_linear_922_19217" x1="949.015" y1="308.788" x2="936.976" y2="-255.105" gradientUnits="userSpaceOnUse">
<stop stop-color="#C4C4C4"/>
<stop offset="1" stop-color="#C4C4C4" stop-opacity="0"/>
</linearGradient>
<linearGradient id="paint9_linear_922_19217" x1="694.894" y1="-441.387" x2="1396.55" y2="229.201" gradientUnits="userSpaceOnUse">
<stop stop-color="#C4C4C4"/>
<stop offset="1" stop-color="#C4C4C4" stop-opacity="0"/>
</linearGradient>
<clipPath id="clip0_922_19217">
<path d="M0 0H1917V825C1917 935.457 1827.46 1025 1717 1025H200C89.5431 1025 0 935.457 0 825V0Z" fill="white"/>
</clipPath>
</defs>
</svg>
