<svg width="1918" height="1249" viewBox="0 0 1918 1249" fill="none" xmlns="http://www.w3.org/2000/svg">
<g clip-path="url(#clip0_963_8682)">
<rect x="-206.705" y="-239.374" width="2290.4" height="1521.9" fill="#2C0064"/>
<g filter="url(#filter0_f_963_8682)">
<ellipse cx="403.208" cy="614.222" rx="403.208" ry="614.222" transform="matrix(-0.36073 -0.939377 0.924155 -0.36528 361.544 1768.64)" fill="#6E00DC"/>
</g>
<mask id="mask0_963_8682" style="mask-type:alpha" maskUnits="userSpaceOnUse" x="-277" y="-281" width="2094" height="2441">
<path d="M1816.77 212.171L506.441 -280.32L-192.098 889.789L-276.046 1265.85L330.339 2065.73L947.907 2159.97L1452.89 1123.13L1816.77 212.171Z" fill="url(#paint0_linear_963_8682)"/>
</mask>
<g mask="url(#mask0_963_8682)">
<mask id="mask1_963_8682" style="mask-type:alpha" maskUnits="userSpaceOnUse" x="-423" y="-343" width="2253" height="2584">
<path d="M878.254 2240.76C301.418 1950.61 -393.102 1517.81 -422.769 1505.29L486.675 -342.281L1829.45 202.336L878.254 2240.76Z" fill="url(#paint1_linear_963_8682)"/>
</mask>
<g mask="url(#mask1_963_8682)">
<path d="M136.245 938.37C235.017 735.57 524.788 668.695 710.122 761.604C895.456 854.513 1098.69 1058.53 992.717 1276.12C940.202 1383.95 1000.33 1576.97 845.645 1658.81C688.181 1742.12 449.851 1585.75 356.359 1538.88C171.024 1445.97 37.4736 1141.17 136.245 938.37Z" fill="#6202FE"/>
<g filter="url(#filter1_f_963_8682)">
<path d="M150.937 948.754C256.867 731.256 493.174 656.056 637.061 728.187C780.948 800.319 929.808 977.039 823.877 1194.54C771.384 1302.32 807.573 1483.28 673.554 1575.41C537.126 1669.2 355.318 1541.18 282.734 1504.79C138.847 1432.66 45.0062 1166.25 150.937 948.754Z" fill="#6202FE"/>
</g>
<g filter="url(#filter2_f_963_8682)">
<path d="M154.143 942.169C272.871 698.396 556.018 623.281 733.688 712.349C911.358 801.416 1099.72 1010.27 980.996 1254.05C922.161 1374.85 990.664 1591.68 832.287 1690.85C671.064 1791.8 429.897 1629.56 340.271 1584.63C162.601 1495.57 35.4161 1185.94 154.143 942.169Z" fill="#6202FE"/>
</g>
<g filter="url(#filter3_f_963_8682)">
<path d="M225.926 943.034C420.688 666.214 796.847 544.613 1026.72 659.848C1256.58 775.082 1430.68 1052.42 1288.29 1344.77C1217.73 1489.65 1377.56 1801.48 1179.25 1916.23C977.389 2033.03 566.011 1805.21 450.054 1747.08C220.186 1631.84 0.304503 1263.71 225.926 943.034Z" fill="#6202FE"/>
</g>
<g filter="url(#filter4_f_963_8682)">
<path d="M322.58 893.406C475.897 578.614 914.999 433.597 1139.74 546.263C1364.49 658.928 1527.34 945.207 1374.02 1260C1298.04 1415.99 1291.56 1648.4 1089.38 1777.63C883.567 1909.18 372.755 1767.57 259.383 1710.73C34.6397 1598.07 169.264 1208.2 322.58 893.406Z" fill="#6202FE"/>
</g>
<g filter="url(#filter5_f_963_8682)">
<path d="M482.911 793.375C641.349 468.067 1080.66 339.865 1310.53 455.099C1540.4 570.334 1706.11 864.885 1547.67 1190.19C1469.16 1351.4 1040.95 1436.2 833.2 1570.35C621.717 1706.9 329.797 1505.4 213.84 1447.27C-16.0276 1332.04 324.472 1118.68 482.911 793.375Z" fill="#6202FE"/>
</g>
<g filter="url(#filter6_f_963_8682)">
<path d="M327.188 1019.73C465.821 735.082 888.086 641.887 1117.95 757.122C1347.82 872.356 1523.88 1145.66 1385.25 1430.31C1316.55 1571.36 1294.28 1773.28 1098.19 1883.48C898.578 1995.66 603.959 1799.71 488.002 1741.58C258.134 1626.34 188.554 1304.37 327.188 1019.73Z" fill="#6202FE"/>
</g>
</g>
</g>
<mask id="mask2_963_8682" style="mask-type:alpha" maskUnits="userSpaceOnUse" x="108" y="233" width="2529" height="1787">
<path d="M108.634 1742.03C183.879 1093.3 279.995 265.753 281.215 233.147L2636.52 510.43L2463.94 2019.31L108.634 1742.03Z" fill="url(#paint2_linear_963_8682)"/>
</mask>
<g mask="url(#mask2_963_8682)">
<path d="M1347.61 627.096C1613.26 658.37 1810.03 917.044 1786.2 1125.38C1762.37 1333.71 1623.57 1594.45 1338.55 1560.89C1197.31 1544.27 1009.89 1663.34 853.951 1539.84C695.211 1414.12 766.551 1134.56 778.572 1029.46C802.4 821.13 1081.96 595.823 1347.61 627.096Z" fill="#FE02A8"/>
<g filter="url(#filter7_f_963_8682)">
<path d="M1342.38 644.565C1627.29 678.105 1808.34 901.855 1787.85 1080.93C1767.37 1260.01 1633 1482.36 1348.1 1448.82C1206.92 1432.2 1021.27 1536.38 863.736 1427.46C703.369 1316.58 770.13 1076.91 780.463 986.576C800.945 807.499 1057.48 611.024 1342.38 644.565Z" fill="#FE02A8"/>
</g>
<g filter="url(#filter8_f_963_8682)">
<path d="M1351.02 645.581C1670.33 683.174 1870.7 956.34 1845.44 1177.12C1820.19 1397.9 1666.58 1673.45 1347.26 1635.85C1189.02 1617.22 977.001 1768.5 801.577 1636.42C623 1501.98 703.093 1187.31 715.831 1075.94C741.083 855.159 1031.7 607.989 1351.02 645.581Z" fill="#FE02A8"/>
</g>
<g filter="url(#filter9_f_963_8682)">
<path d="M1384.88 676.069C1772.93 776.637 2066.74 1101.43 2037.18 1359.83C2007.63 1618.22 1775.58 1874 1392.62 1828.91C1202.85 1806.57 926.677 2059.47 715.927 1904.25C501.39 1746.25 593.887 1399.98 608.795 1269.63C638.35 1011.24 935.346 559.566 1384.88 676.069Z" fill="#FE02A8"/>
</g>
<g filter="url(#filter10_f_963_8682)">
<path d="M1505.75 796.282C1918.09 844.826 2235 1219.53 2206.1 1472.16C2177.21 1724.8 1930.52 1972.54 1518.17 1924C1313.83 1899.94 1054.7 1967.15 826.321 1812.76C593.837 1655.6 689.44 1317.66 704.017 1190.22C732.912 937.584 1093.4 747.738 1505.75 796.282Z" fill="#FE02A8"/>
</g>
<g filter="url(#filter11_f_963_8682)">
<path d="M1654.7 916.017C2080.82 966.183 2408.72 1349.88 2379.17 1608.27C2349.61 1866.66 2095.01 2119.79 1668.89 2069.62C1457.72 2044.76 1190.05 2113.19 953.89 1954.98C713.484 1793.93 811.863 1448.35 826.772 1318C856.326 1059.61 1228.58 865.851 1654.7 916.017Z" fill="#FE02A8"/>
</g>
<g filter="url(#filter12_f_963_8682)">
<path d="M1338.9 837.191C1711.76 881.086 1993.8 1259.38 1964.24 1517.77C1934.69 1776.17 1707.92 2032.57 1335.06 1988.67C1150.29 1966.92 918.089 2009.24 713.286 1854.72C504.803 1697.43 595.924 1351 610.833 1220.65C640.387 962.258 966.042 793.296 1338.9 837.191Z" fill="#FE02A8"/>
</g>
</g>
<mask id="mask3_963_8682" style="mask-type:alpha" maskUnits="userSpaceOnUse" x="282" y="267" width="1644" height="2273">
<path d="M282.713 438.32C937.709 359.256 1652.65 273.236 1685.01 267.109L1925.43 2368.75L523.125 2539.96L282.713 438.32Z" fill="url(#paint3_linear_963_8682)"/>
</mask>
<g mask="url(#mask3_963_8682)">
<path d="M1620.09 1199.7C1637.56 1346.99 1502.11 1489.16 1367.5 1505.59C1232.9 1522.02 1049.18 1483.97 1030.43 1325.94C1021.14 1247.63 919.885 1163.53 975.879 1062.3C1032.88 959.259 1219.02 958.381 1286.92 950.091C1421.53 933.656 1602.62 1052.41 1620.09 1199.7Z" fill="#6202FE"/>
<g filter="url(#filter13_f_963_8682)">
<path d="M1608.35 1199.34C1627.09 1357.3 1523.93 1484.59 1419.43 1497.35C1314.93 1510.11 1170.72 1467.25 1151.98 1309.29C1142.69 1231.01 1058.84 1144.82 1099.85 1045.46C1141.6 944.323 1286.68 948.448 1339.4 942.012C1443.9 929.253 1589.61 1041.37 1608.35 1199.34Z" fill="#6202FE"/>
</g>
<g filter="url(#filter14_f_963_8682)">
<path d="M1608.92 1204.12C1629.92 1381.17 1501.02 1525.45 1371.98 1541.21C1242.94 1556.96 1065.67 1510.84 1044.67 1333.79C1034.26 1246.05 919.992 1151.93 971.886 1039.85C1024.71 925.753 1214.48 927.061 1279.58 919.113C1408.62 903.358 1587.92 1027.07 1608.92 1204.12Z" fill="#6202FE"/>
</g>
<g filter="url(#filter15_f_963_8682)">
<path d="M1569.2 1229.77C1560.14 1452.63 1396.6 1656.29 1229.66 1676.67C1062.71 1697.05 869.063 1608.14 843.877 1395.81C831.395 1290.59 633.393 1177.54 701.702 1042.37C771.238 904.782 1077.65 880.161 1161.87 869.878C1328.82 849.495 1579.7 971.595 1569.2 1229.77Z" fill="#6202FE"/>
</g>
<g filter="url(#filter16_f_963_8682)">
<path d="M1533.68 1292.2C1560.8 1520.83 1370.98 1760.24 1207.76 1780.17C1044.53 1800.1 853.9 1702.18 826.781 1473.55C813.342 1360.26 734.73 1230.3 800.048 1085.77C866.538 938.642 1197.06 830.502 1279.41 820.448C1442.63 800.52 1506.56 1063.57 1533.68 1292.2Z" fill="#6202FE"/>
</g>
<g filter="url(#filter17_f_963_8682)">
<path d="M1481.02 1405.46C1509.04 1641.73 1313.17 1871.99 1146.22 1892.37C979.268 1912.76 784.143 1811.34 756.117 1575.07C742.229 1457.99 947.352 1255.6 1013.99 1106.35C1081.82 954.411 1313.34 958.808 1397.56 948.526C1564.51 928.143 1452.99 1169.2 1481.02 1405.46Z" fill="#6202FE"/>
</g>
<g filter="url(#filter18_f_963_8682)">
<path d="M1486.49 1224.51C1511.01 1431.25 1312.12 1636.08 1145.17 1656.47C978.219 1676.85 784.924 1590.87 760.402 1384.13C748.249 1281.69 689.085 1162.72 757.785 1030.85C827.719 896.618 1058.76 896.991 1142.98 886.708C1309.93 866.325 1461.97 1017.78 1486.49 1224.51Z" fill="#6202FE"/>
</g>
</g>
<mask id="mask4_963_8682" style="mask-type:alpha" maskUnits="userSpaceOnUse" x="-982" y="-1100" width="1644" height="2274">
<path d="M-981.062 -928.327C-326.065 -1007.39 388.878 -1093.41 421.239 -1099.54L661.65 1002.1L-740.65 1173.31L-981.062 -928.327Z" fill="url(#paint4_linear_963_8682)"/>
</mask>
<g mask="url(#mask4_963_8682)">
<path d="M356.315 -166.953C373.786 -19.6628 238.333 122.506 103.728 138.941C-30.8776 155.375 -214.596 117.319 -233.341 -40.7117C-242.63 -119.023 -343.889 -203.122 -287.895 -304.347C-230.895 -407.39 -44.7548 -408.269 23.1471 -416.559C157.753 -432.993 338.844 -314.244 356.315 -166.953Z" fill="#6202FE"/>
<g filter="url(#filter19_f_963_8682)">
<path d="M344.576 -167.307C363.313 -9.34157 260.158 117.942 155.655 130.701C51.1516 143.461 -93.0597 100.605 -111.797 -57.3605C-121.083 -135.64 -204.932 -221.826 -163.924 -321.182C-122.179 -422.324 22.9043 -418.198 75.6211 -424.635C180.124 -437.394 325.838 -325.273 344.576 -167.307Z" fill="#6202FE"/>
</g>
<g filter="url(#filter20_f_963_8682)">
<path d="M345.143 -162.527C366.144 14.5222 237.241 158.805 108.202 174.56C-20.8375 190.314 -198.102 144.19 -219.103 -32.8584C-229.51 -120.595 -343.783 -214.714 -291.889 -326.798C-239.062 -440.895 -49.2919 -439.587 15.8021 -447.534C144.841 -463.289 324.142 -339.576 345.143 -162.527Z" fill="#6202FE"/>
</g>
<g filter="url(#filter21_f_963_8682)">
<path d="M305.427 -136.879C296.365 85.9848 132.83 289.639 -34.1199 310.022C-201.07 330.405 -394.712 241.494 -419.898 29.1592C-432.38 -76.0631 -630.382 -189.112 -562.073 -324.276C-492.537 -461.867 -186.123 -486.488 -101.905 -496.77C65.0444 -517.154 315.923 -395.053 305.427 -136.879Z" fill="#6202FE"/>
</g>
<g filter="url(#filter22_f_963_8682)">
<path d="M269.906 -74.4532C297.025 154.176 107.21 393.592 -56.0175 413.521C-219.245 433.45 -409.874 335.533 -436.994 106.904C-450.433 -6.39276 -529.044 -136.351 -463.727 -280.881C-397.236 -428.008 -66.7096 -536.148 15.631 -546.201C178.859 -566.13 242.786 -303.082 269.906 -74.4532Z" fill="#6202FE"/>
</g>
<g filter="url(#filter23_f_963_8682)">
<path d="M217.244 38.814C245.269 275.081 49.3931 505.342 -117.557 525.726C-284.506 546.109 -479.632 444.693 -507.657 208.426C-521.545 91.3437 -316.422 -111.05 -249.785 -260.303C-181.951 -412.238 49.5675 -407.84 133.786 -418.123C300.735 -438.506 189.218 -197.453 217.244 38.814Z" fill="#6202FE"/>
</g>
<g filter="url(#filter24_f_963_8682)">
<path d="M222.713 -142.135C247.235 64.599 48.3429 269.435 -118.607 289.818C-285.557 310.202 -478.851 224.217 -503.374 17.4833C-515.526 -84.9633 -574.69 -203.931 -505.99 -335.796C-436.056 -470.031 -205.016 -469.658 -120.798 -479.94C46.1521 -500.324 198.19 -348.868 222.713 -142.135Z" fill="#6202FE"/>
</g>
</g>
<g filter="url(#filter25_f_963_8682)">
<ellipse cx="326.039" cy="502.877" rx="326.039" ry="502.877" transform="matrix(0.998015 -0.0629842 -0.0611986 -0.998126 861.511 406.712)" fill="#6202FE"/>
</g>
<mask id="mask5_963_8682" style="mask-type:alpha" maskUnits="userSpaceOnUse" x="819" y="-901" width="973" height="1762">
<path d="M819.081 -900.197L1736.96 -664.938L1791.98 212.621L1751.91 509.809L1279.21 860.82L881.645 734.161L826.125 -171.36L819.081 -900.197Z" fill="url(#paint5_linear_963_8682)"/>
</mask>
<g mask="url(#mask5_963_8682)">
</g>
<mask id="mask6_963_8682" style="mask-type:alpha" maskUnits="userSpaceOnUse" x="770" y="-809" width="1074" height="1633">
<path d="M866.481 823.516C1286.73 796.303 1822.83 761.503 1843.87 761.833L1747.58 -808.518L770.197 -746.836L866.481 823.516Z" fill="url(#paint6_linear_963_8682)"/>
</mask>
<g mask="url(#mask6_963_8682)">
<path d="M1669.81 110.312C1658.95 -66.8033 1499.29 -206.217 1364.34 -197.7C1229.39 -189.184 1056.69 -106.311 1068.34 83.7184C1074.12 177.887 990.919 297.919 1064.98 405.558C1140.37 515.131 1322.84 477.619 1390.91 473.322C1525.86 464.806 1680.66 287.427 1669.81 110.312Z" fill="#6202FE"/>
<g filter="url(#filter26_f_963_8682)">
<path d="M1658.38 113.163C1646.73 -76.7889 1509.01 -204.567 1393.01 -197.246C1277.01 -189.926 1129.18 -108.652 1140.83 81.3001C1146.6 175.43 1073.05 294.806 1137.67 402.996C1203.45 513.128 1360.07 477.258 1418.59 473.565C1534.59 466.244 1670.02 303.115 1658.38 113.163Z" fill="#6202FE"/>
</g>
<g filter="url(#filter27_f_963_8682)">
<path d="M1658.02 107.405C1644.97 -105.494 1476.11 -247.793 1333.1 -238.768C1190.09 -229.742 1007.34 -137.573 1020.39 75.326C1026.86 180.828 922.073 316.035 1000.97 436.886C1081.29 559.907 1286.66 517.821 1358.8 513.268C1501.81 504.243 1671.08 320.304 1658.02 107.405Z" fill="#6202FE"/>
</g>
<g filter="url(#filter28_f_963_8682)">
<path d="M1639.58 83.9019C1588.38 -176.738 1389.55 -382.76 1222.17 -372.197C1054.8 -361.634 882.036 -216.803 897.691 38.5272C905.449 165.056 733.001 339.222 825.567 484.288C919.797 631.961 1145.94 582.758 1230.38 577.429C1397.75 566.866 1698.89 385.838 1639.58 83.9019Z" fill="#6202FE"/>
</g>
<g filter="url(#filter29_f_963_8682)">
<path d="M1566.41 -0.382026C1549.56 -275.306 1319.4 -498.375 1155.75 -488.048C992.108 -477.72 824.008 -322.906 840.864 -47.9822C849.218 88.2558 796.907 257.616 888.323 414.335C981.381 573.87 1202.27 522.318 1284.82 517.108C1448.47 506.781 1583.27 274.542 1566.41 -0.382026Z" fill="#6202FE"/>
</g>
<g filter="url(#filter30_f_963_8682)">
<path d="M1494.53 -103.258C1477.11 -387.366 1241.55 -618.033 1074.18 -607.47C906.8 -596.907 734.96 -437.038 752.379 -152.93C761.011 -12.1411 707.616 162.835 801.221 324.844C896.508 489.764 1122.41 436.639 1206.85 431.311C1374.22 420.748 1511.95 180.85 1494.53 -103.258Z" fill="#6202FE"/>
</g>
<g filter="url(#filter31_f_963_8682)">
<path d="M1534.25 108.75C1519.01 -139.845 1285.32 -339.938 1117.95 -329.375C950.57 -318.812 777.592 -177.5 792.834 71.0946C800.387 194.285 765.036 346.672 857.359 487.772C951.341 631.408 1177.54 583.123 1261.98 577.795C1429.35 567.232 1549.49 357.344 1534.25 108.75Z" fill="#6202FE"/>
</g>
</g>
<g filter="url(#filter32_f_963_8682)">
<path d="M986.002 322.965C1038.51 340.561 1158.03 303.499 1283.62 254.984L1449.44 244.52C1593.68 235.416 1540.32 5.09357 1444.86 -183.215C1349.41 -371.523 1353.76 -366.878 1213.86 -353.129C1073.96 -339.38 1138.27 -438.145 1070.47 -550.712C1002.67 -663.279 1126.33 -426.578 1026.52 -288.674C926.715 -150.771 900.298 -236.174 1001.52 -42.0799C1102.73 152.014 1055.04 146.809 1004.2 156.168C953.348 165.527 949.734 106.717 902.927 115.821C856.119 124.924 879.266 149.293 909.838 228.54C940.41 307.788 933.498 305.369 986.002 322.965Z" fill="#50DFFF"/>
</g>
<mask id="mask7_963_8682" style="mask-type:alpha" maskUnits="userSpaceOnUse" x="380" y="-406" width="1494" height="1044">
<path d="M1873.38 -253.569L1558.51 637.704L849.598 577.881L613.617 498.607L380.976 -22.5155L537.468 -405.303L1280.45 -342.189L1873.38 -253.569Z" fill="url(#paint7_linear_963_8682)"/>
</mask>
<g mask="url(#mask7_963_8682)">
<mask id="mask8_963_8682" style="mask-type:alpha" maskUnits="userSpaceOnUse" x="394" y="-394" width="1403" height="1020">
<path d="M469.342 -393.004C434.769 32.7854 397.209 497.537 394.104 518.625L1721.28 625.636L1796.52 -285.993L469.342 -393.004Z" fill="url(#paint8_linear_963_8682)"/>
</mask>
<g mask="url(#mask8_963_8682)">
<path d="M937.885 468.444C1083.21 480.789 1217.97 338.693 1229.26 201.996C1240.54 65.2985 1196.52 -119.089 1040.6 -132.334C963.332 -138.898 877.059 -238.246 779.643 -177.972C680.478 -116.615 686.339 71.6286 680.648 140.586C669.366 277.283 792.562 456.099 937.885 468.444Z" fill="#6202FE"/>
<g filter="url(#filter33_f_963_8682)">
<path d="M937.111 456.592C1092.97 469.832 1214.28 360.931 1223.04 254.803C1231.79 148.676 1184.49 4.40815 1028.63 -8.83146C951.397 -15.3923 863.704 -97.0617 767.582 -52.0075C669.733 -6.14396 679.027 140.405 674.608 193.941C665.85 300.068 781.256 443.353 937.111 456.592Z" fill="#6202FE"/>
</g>
<g filter="url(#filter34_f_963_8682)">
<path d="M941.829 456.994C1116.51 471.833 1253.59 336.282 1264.41 205.238C1275.22 74.1935 1223.51 -103.377 1048.83 -118.216C962.261 -125.57 865.675 -237.714 757.443 -181.193C647.268 -123.657 655.408 68.1778 649.952 134.283C639.137 265.328 767.145 442.155 941.829 456.994Z" fill="#6202FE"/>
</g>
<g filter="url(#filter35_f_963_8682)">
<path d="M965.589 415.909C1184.19 398.696 1378.35 225.983 1392.34 56.439C1406.33 -113.105 1311.99 -305.69 1102.49 -323.487C998.678 -332.306 880.471 -528.427 750.16 -454.476C617.509 -379.195 604.392 -68.4819 597.333 17.0448C583.341 186.589 712.349 435.849 965.589 415.909Z" fill="#6202FE"/>
</g>
<g filter="url(#filter36_f_963_8682)">
<path d="M1025.63 377.734C1251.2 396.896 1479.54 196.32 1493.22 30.5554C1506.9 -135.209 1403.82 -324.422 1178.25 -343.584C1066.47 -353.08 935.961 -427.871 796.34 -356.606C654.211 -284.06 559.92 54.0514 553.019 137.671C539.338 303.436 800.053 358.572 1025.63 377.734Z" fill="#6202FE"/>
</g>
<g filter="url(#filter37_f_963_8682)">
<path d="M1134.99 320.392C1368.1 340.194 1587.23 133.82 1601.22 -35.7242C1615.21 -205.268 1508.54 -398.902 1275.43 -418.704C1159.91 -428.517 968.496 -213.799 824.284 -141.029C677.48 -66.9507 690.164 166.985 683.106 252.512C669.113 422.056 901.884 300.59 1134.99 320.392Z" fill="#6202FE"/>
</g>
<g filter="url(#filter38_f_963_8682)">
<path d="M957.436 332.465C1161.41 349.792 1355.44 141.287 1369.44 -28.2574C1383.43 -197.801 1291.98 -390.141 1088.01 -407.468C986.93 -416.055 867.925 -471.58 740.868 -397.352C611.528 -321.79 620.241 -88.1917 613.182 -2.66499C599.19 166.879 753.465 315.138 957.436 332.465Z" fill="#6202FE"/>
</g>
</g>
</g>
<mask id="mask9_963_8682" style="mask-type:alpha" maskUnits="userSpaceOnUse" x="327" y="-1141" width="1725" height="2010">
<path d="M2051.45 -748.362C1653.44 -875.872 852.594 -1132.91 833.315 -1141L327 475.816L1545.13 868.455L2051.45 -748.362Z" fill="url(#paint9_linear_963_8682)"/>
</mask>
<g mask="url(#mask9_963_8682)">
<path d="M675.184 -454.079C658.872 -273.381 712.53 -72.4833 840.252 -31.3147C967.975 9.85381 1158.7 -9.93795 1219.97 -205.59C1250.34 -302.545 1334.75 -271.95 1307.22 -407.642C1279.2 -545.771 1096.65 -575.257 1032.22 -596.024C904.497 -637.193 691.496 -634.777 675.184 -454.079Z" fill="#FF3093"/>
<path d="M676.064 -430.521C680.203 -125.896 704.195 -77.7215 813.981 -42.3343C923.767 -6.9472 1090.95 -34.2959 1152.19 -229.868C1182.54 -326.784 1257.08 -296.762 1238.47 -429.528C1219.52 -564.679 1058.32 -587.296 1002.94 -605.147C893.151 -640.534 666.695 -583.337 676.064 -430.521Z" fill="#FF3093"/>
<g filter="url(#filter40_f_963_8682)">
<path d="M684.959 -446.809C647.989 -96.1195 789.644 100.253 924.997 143.881C1060.35 187.509 1192.39 39.7356 1261.04 -179.463C1295.05 -288.086 1378.95 -181.187 1351.96 -331.967C1324.49 -485.455 1109.84 -547.387 1041.56 -569.395C906.205 -613.023 753.602 -666.008 684.959 -446.809Z" fill="#FF3093"/>
</g>
<g filter="url(#filter41_f_963_8682)">
<path d="M693.062 -416.346C655.781 -107.7 755.051 241.384 913.463 292.445C1071.88 343.506 1277.96 165.705 1360.28 -97.1802C1401.08 -227.452 1562.16 -134.843 1531.74 -315.045C1500.77 -498.484 1273.5 -532.299 1193.59 -558.057C1035.18 -609.118 730.344 -724.992 693.062 -416.346Z" fill="#FF3093"/>
</g>
<g filter="url(#filter42_f_963_8682)">
<path d="M705.775 -183.538C734.82 290.17 745.034 298.819 899.915 348.741C1054.8 398.664 1291.28 293.944 1379.93 10.8857C1423.85 -129.383 1406.94 -172.684 1382 -364.195C1356.61 -559.148 1091.19 -592.923 1013.06 -618.106C858.182 -668.029 688.932 -458.251 705.775 -183.538Z" fill="#FF3093"/>
</g>
<g filter="url(#filter43_f_963_8682)">
<path d="M755.947 -174.404C664.344 118.11 794.238 437.22 952.65 488.281C1111.06 539.342 1330.18 441.701 1421.78 149.186C1467.17 4.23078 1550.02 -239.502 1525.07 -437.148C1499.66 -638.345 1120.17 -495.368 1040.26 -521.126C881.846 -572.187 847.55 -466.919 755.947 -174.404Z" fill="#FF3093"/>
</g>
<g filter="url(#filter44_f_963_8682)">
<path d="M799.662 -402.532C719.51 -146.582 859.26 141.05 1017.67 192.111C1176.09 243.172 1389.22 164.635 1469.37 -91.3147C1509.09 -218.151 1523.8 -116.977 1492.1 -293.096C1459.84 -472.379 1232.86 -507.139 1152.95 -532.897C994.535 -583.957 879.814 -658.482 799.662 -402.532Z" fill="#FF3093"/>
</g>
</g>
<g opacity="0.6" filter="url(#filter45_f_963_8682)">
<path d="M1408.8 -94.4142C1395.43 -312.429 1186.17 -551.799 1076.87 -544.901C967.57 -538.003 708.804 -684.283 960.197 -159.023C973.565 58.9925 777.349 330.784 1125.28 244.602C1234.58 237.704 1100.35 17.972 1408.8 -94.4142Z" fill="#0267FF"/>
</g>
</g>
<path d="M1917.5 0.5V1049C1917.5 1159.18 1828.18 1248.5 1718 1248.5H200C89.8192 1248.5 0.5 1159.18 0.5 1049V0.5H1917.5Z" stroke="black"/>
<defs>
<filter id="filter0_f_963_8682" x="-50.9208" y="476.684" width="1669.3" height="1377.67" filterUnits="userSpaceOnUse" color-interpolation-filters="sRGB">
<feFlood flood-opacity="0" result="BackgroundImageFix"/>
<feBlend mode="normal" in="SourceGraphic" in2="BackgroundImageFix" result="shape"/>
<feGaussianBlur stdDeviation="124.268" result="effect1_foregroundBlur_963_8682"/>
</filter>
<filter id="filter1_f_963_8682" x="95.5525" y="691.686" width="774.107" height="927.349" filterUnits="userSpaceOnUse" color-interpolation-filters="sRGB">
<feFlood flood-opacity="0" result="BackgroundImageFix"/>
<feBlend mode="normal" in="SourceGraphic" in2="BackgroundImageFix" result="shape"/>
<feGaussianBlur stdDeviation="4.97072" result="effect1_foregroundBlur_963_8682"/>
</filter>
<filter id="filter2_f_963_8682" x="73.1137" y="641.404" width="979.835" height="1116.75" filterUnits="userSpaceOnUse" color-interpolation-filters="sRGB">
<feFlood flood-opacity="0" result="BackgroundImageFix"/>
<feBlend mode="normal" in="SourceGraphic" in2="BackgroundImageFix" result="shape"/>
<feGaussianBlur stdDeviation="17.3975" result="effect1_foregroundBlur_963_8682"/>
</filter>
<filter id="filter3_f_963_8682" x="81.6715" y="566.833" width="1307.85" height="1431.94" filterUnits="userSpaceOnUse" color-interpolation-filters="sRGB">
<feFlood flood-opacity="0" result="BackgroundImageFix"/>
<feBlend mode="normal" in="SourceGraphic" in2="BackgroundImageFix" result="shape"/>
<feGaussianBlur stdDeviation="24.8536" result="effect1_foregroundBlur_963_8682"/>
</filter>
<filter id="filter4_f_963_8682" x="5.94878" y="374.134" width="1562.33" height="1592.01" filterUnits="userSpaceOnUse" color-interpolation-filters="sRGB">
<feFlood flood-opacity="0" result="BackgroundImageFix"/>
<feBlend mode="normal" in="SourceGraphic" in2="BackgroundImageFix" result="shape"/>
<feGaussianBlur stdDeviation="67.1047" result="effect1_foregroundBlur_963_8682"/>
</filter>
<filter id="filter5_f_963_8682" x="-196.545" y="80.5143" width="2139.83" height="1869.44" filterUnits="userSpaceOnUse" color-interpolation-filters="sRGB">
<feFlood flood-opacity="0" result="BackgroundImageFix"/>
<feBlend mode="normal" in="SourceGraphic" in2="BackgroundImageFix" result="shape"/>
<feGaussianBlur stdDeviation="166.519" result="effect1_foregroundBlur_963_8682"/>
</filter>
<filter id="filter6_f_963_8682" x="101.988" y="554.882" width="1486.42" height="1516.75" filterUnits="userSpaceOnUse" color-interpolation-filters="sRGB">
<feFlood flood-opacity="0" result="BackgroundImageFix"/>
<feBlend mode="normal" in="SourceGraphic" in2="BackgroundImageFix" result="shape"/>
<feGaussianBlur stdDeviation="77.0461" result="effect1_foregroundBlur_963_8682"/>
</filter>
<filter id="filter7_f_963_8682" x="747.992" y="630.853" width="1051.38" height="856.918" filterUnits="userSpaceOnUse" color-interpolation-filters="sRGB">
<feFlood flood-opacity="0" result="BackgroundImageFix"/>
<feBlend mode="normal" in="SourceGraphic" in2="BackgroundImageFix" result="shape"/>
<feGaussianBlur stdDeviation="4.97072" result="effect1_foregroundBlur_963_8682"/>
</filter>
<filter id="filter8_f_963_8682" x="652.15" y="606.97" width="1230.23" height="1118.89" filterUnits="userSpaceOnUse" color-interpolation-filters="sRGB">
<feFlood flood-opacity="0" result="BackgroundImageFix"/>
<feBlend mode="normal" in="SourceGraphic" in2="BackgroundImageFix" result="shape"/>
<feGaussianBlur stdDeviation="17.3975" result="effect1_foregroundBlur_963_8682"/>
</filter>
<filter id="filter9_f_963_8682" x="526.523" y="607.526" width="1562.42" height="1397.12" filterUnits="userSpaceOnUse" color-interpolation-filters="sRGB">
<feFlood flood-opacity="0" result="BackgroundImageFix"/>
<feBlend mode="normal" in="SourceGraphic" in2="BackgroundImageFix" result="shape"/>
<feGaussianBlur stdDeviation="24.8536" result="effect1_foregroundBlur_963_8682"/>
</filter>
<filter id="filter10_f_963_8682" x="538.033" y="654.462" width="1804.11" height="1409.88" filterUnits="userSpaceOnUse" color-interpolation-filters="sRGB">
<feFlood flood-opacity="0" result="BackgroundImageFix"/>
<feBlend mode="normal" in="SourceGraphic" in2="BackgroundImageFix" result="shape"/>
<feGaussianBlur stdDeviation="67.1047" result="effect1_foregroundBlur_963_8682"/>
</filter>
<filter id="filter11_f_963_8682" x="461.237" y="575.035" width="2252.82" height="1834.03" filterUnits="userSpaceOnUse" color-interpolation-filters="sRGB">
<feFlood flood-opacity="0" result="BackgroundImageFix"/>
<feBlend mode="normal" in="SourceGraphic" in2="BackgroundImageFix" result="shape"/>
<feGaussianBlur stdDeviation="166.519" result="effect1_foregroundBlur_963_8682"/>
</filter>
<filter id="filter12_f_963_8682" x="424.141" y="676.168" width="1696.32" height="1471.53" filterUnits="userSpaceOnUse" color-interpolation-filters="sRGB">
<feFlood flood-opacity="0" result="BackgroundImageFix"/>
<feBlend mode="normal" in="SourceGraphic" in2="BackgroundImageFix" result="shape"/>
<feGaussianBlur stdDeviation="77.0461" result="effect1_foregroundBlur_963_8682"/>
</filter>
<filter id="filter13_f_963_8682" x="1082.11" y="934.504" width="534.983" height="571.477" filterUnits="userSpaceOnUse" color-interpolation-filters="sRGB">
<feFlood flood-opacity="0" result="BackgroundImageFix"/>
<feBlend mode="normal" in="SourceGraphic" in2="BackgroundImageFix" result="shape"/>
<feGaussianBlur stdDeviation="3.25995" result="effect1_foregroundBlur_963_8682"/>
</filter>
<filter id="filter14_f_963_8682" x="935.616" y="894.943" width="698.383" height="671.963" filterUnits="userSpaceOnUse" color-interpolation-filters="sRGB">
<feFlood flood-opacity="0" result="BackgroundImageFix"/>
<feBlend mode="normal" in="SourceGraphic" in2="BackgroundImageFix" result="shape"/>
<feGaussianBlur stdDeviation="11.4098" result="effect1_foregroundBlur_963_8682"/>
</filter>
<filter id="filter15_f_963_8682" x="654.807" y="835.089" width="947.313" height="877.02" filterUnits="userSpaceOnUse" color-interpolation-filters="sRGB">
<feFlood flood-opacity="0" result="BackgroundImageFix"/>
<feBlend mode="normal" in="SourceGraphic" in2="BackgroundImageFix" result="shape"/>
<feGaussianBlur stdDeviation="16.2998" result="effect1_foregroundBlur_963_8682"/>
</filter>
<filter id="filter16_f_963_8682" x="686.413" y="731.363" width="937.891" height="1139.35" filterUnits="userSpaceOnUse" color-interpolation-filters="sRGB">
<feFlood flood-opacity="0" result="BackgroundImageFix"/>
<feBlend mode="normal" in="SourceGraphic" in2="BackgroundImageFix" result="shape"/>
<feGaussianBlur stdDeviation="44.0093" result="effect1_foregroundBlur_963_8682"/>
</filter>
<filter id="filter17_f_963_8682" x="537.028" y="728.901" width="1173.26" height="1384.44" filterUnits="userSpaceOnUse" color-interpolation-filters="sRGB">
<feFlood flood-opacity="0" result="BackgroundImageFix"/>
<feBlend mode="normal" in="SourceGraphic" in2="BackgroundImageFix" result="shape"/>
<feGaussianBlur stdDeviation="109.208" result="effect1_foregroundBlur_963_8682"/>
</filter>
<filter id="filter18_f_963_8682" x="624.08" y="783.812" width="965.53" height="976.631" filterUnits="userSpaceOnUse" color-interpolation-filters="sRGB">
<feFlood flood-opacity="0" result="BackgroundImageFix"/>
<feBlend mode="normal" in="SourceGraphic" in2="BackgroundImageFix" result="shape"/>
<feGaussianBlur stdDeviation="50.5292" result="effect1_foregroundBlur_963_8682"/>
</filter>
<filter id="filter19_f_963_8682" x="-181.669" y="-432.143" width="534.984" height="571.477" filterUnits="userSpaceOnUse" color-interpolation-filters="sRGB">
<feFlood flood-opacity="0" result="BackgroundImageFix"/>
<feBlend mode="normal" in="SourceGraphic" in2="BackgroundImageFix" result="shape"/>
<feGaussianBlur stdDeviation="3.25995" result="effect1_foregroundBlur_963_8682"/>
</filter>
<filter id="filter20_f_963_8682" x="-328.159" y="-471.705" width="698.382" height="671.964" filterUnits="userSpaceOnUse" color-interpolation-filters="sRGB">
<feFlood flood-opacity="0" result="BackgroundImageFix"/>
<feBlend mode="normal" in="SourceGraphic" in2="BackgroundImageFix" result="shape"/>
<feGaussianBlur stdDeviation="11.4098" result="effect1_foregroundBlur_963_8682"/>
</filter>
<filter id="filter21_f_963_8682" x="-608.968" y="-531.559" width="947.313" height="877.021" filterUnits="userSpaceOnUse" color-interpolation-filters="sRGB">
<feFlood flood-opacity="0" result="BackgroundImageFix"/>
<feBlend mode="normal" in="SourceGraphic" in2="BackgroundImageFix" result="shape"/>
<feGaussianBlur stdDeviation="16.2998" result="effect1_foregroundBlur_963_8682"/>
</filter>
<filter id="filter22_f_963_8682" x="-577.361" y="-635.287" width="937.891" height="1139.35" filterUnits="userSpaceOnUse" color-interpolation-filters="sRGB">
<feFlood flood-opacity="0" result="BackgroundImageFix"/>
<feBlend mode="normal" in="SourceGraphic" in2="BackgroundImageFix" result="shape"/>
<feGaussianBlur stdDeviation="44.0093" result="effect1_foregroundBlur_963_8682"/>
</filter>
<filter id="filter23_f_963_8682" x="-726.746" y="-637.748" width="1173.26" height="1384.44" filterUnits="userSpaceOnUse" color-interpolation-filters="sRGB">
<feFlood flood-opacity="0" result="BackgroundImageFix"/>
<feBlend mode="normal" in="SourceGraphic" in2="BackgroundImageFix" result="shape"/>
<feGaussianBlur stdDeviation="109.208" result="effect1_foregroundBlur_963_8682"/>
</filter>
<filter id="filter24_f_963_8682" x="-639.696" y="-582.837" width="965.53" height="976.631" filterUnits="userSpaceOnUse" color-interpolation-filters="sRGB">
<feFlood flood-opacity="0" result="BackgroundImageFix"/>
<feBlend mode="normal" in="SourceGraphic" in2="BackgroundImageFix" result="shape"/>
<feGaussianBlur stdDeviation="50.5292" result="effect1_foregroundBlur_963_8682"/>
</filter>
<filter id="filter25_f_963_8682" x="711.666" y="-735.715" width="888.923" height="1239.91" filterUnits="userSpaceOnUse" color-interpolation-filters="sRGB">
<feFlood flood-opacity="0" result="BackgroundImageFix"/>
<feBlend mode="normal" in="SourceGraphic" in2="BackgroundImageFix" result="shape"/>
<feGaussianBlur stdDeviation="58.7975" result="effect1_foregroundBlur_963_8682"/>
</filter>
<filter id="filter26_f_963_8682" x="1106.23" y="-202.249" width="557.559" height="689.007" filterUnits="userSpaceOnUse" color-interpolation-filters="sRGB">
<feFlood flood-opacity="0" result="BackgroundImageFix"/>
<feBlend mode="normal" in="SourceGraphic" in2="BackgroundImageFix" result="shape"/>
<feGaussianBlur stdDeviation="2.3519" result="effect1_foregroundBlur_963_8682"/>
</filter>
<filter id="filter27_f_963_8682" x="954.958" y="-255.637" width="720.239" height="795.956" filterUnits="userSpaceOnUse" color-interpolation-filters="sRGB">
<feFlood flood-opacity="0" result="BackgroundImageFix"/>
<feBlend mode="normal" in="SourceGraphic" in2="BackgroundImageFix" result="shape"/>
<feGaussianBlur stdDeviation="8.23164" result="effect1_foregroundBlur_963_8682"/>
</filter>
<filter id="filter28_f_963_8682" x="774.666" y="-396.105" width="896.053" height="1009.15" filterUnits="userSpaceOnUse" color-interpolation-filters="sRGB">
<feFlood flood-opacity="0" result="BackgroundImageFix"/>
<feBlend mode="normal" in="SourceGraphic" in2="BackgroundImageFix" result="shape"/>
<feGaussianBlur stdDeviation="11.7595" result="effect1_foregroundBlur_963_8682"/>
</filter>
<filter id="filter29_f_963_8682" x="769.918" y="-551.894" width="861.422" height="1144.54" filterUnits="userSpaceOnUse" color-interpolation-filters="sRGB">
<feFlood flood-opacity="0" result="BackgroundImageFix"/>
<feBlend mode="normal" in="SourceGraphic" in2="BackgroundImageFix" result="shape"/>
<feGaussianBlur stdDeviation="31.7506" result="effect1_foregroundBlur_963_8682"/>
</filter>
<filter id="filter30_f_963_8682" x="587.336" y="-765.396" width="1066.26" height="1366.62" filterUnits="userSpaceOnUse" color-interpolation-filters="sRGB">
<feFlood flood-opacity="0" result="BackgroundImageFix"/>
<feBlend mode="normal" in="SourceGraphic" in2="BackgroundImageFix" result="shape"/>
<feGaussianBlur stdDeviation="78.7886" result="effect1_foregroundBlur_963_8682"/>
</filter>
<filter id="filter31_f_963_8682" x="718.986" y="-402.684" width="889.475" height="1065.43" filterUnits="userSpaceOnUse" color-interpolation-filters="sRGB">
<feFlood flood-opacity="0" result="BackgroundImageFix"/>
<feBlend mode="normal" in="SourceGraphic" in2="BackgroundImageFix" result="shape"/>
<feGaussianBlur stdDeviation="36.4544" result="effect1_foregroundBlur_963_8682"/>
</filter>
<filter id="filter32_f_963_8682" x="796.357" y="-660.132" width="821.925" height="1067.51" filterUnits="userSpaceOnUse" color-interpolation-filters="sRGB">
<feFlood flood-opacity="0" result="BackgroundImageFix"/>
<feBlend mode="normal" in="SourceGraphic" in2="BackgroundImageFix" result="shape"/>
<feGaussianBlur stdDeviation="39.9823" result="effect1_foregroundBlur_963_8682"/>
</filter>
<filter id="filter33_f_963_8682" x="669.438" y="-70.2038" width="559.305" height="532.597" filterUnits="userSpaceOnUse" color-interpolation-filters="sRGB">
<feFlood flood-opacity="0" result="BackgroundImageFix"/>
<feBlend mode="normal" in="SourceGraphic" in2="BackgroundImageFix" result="shape"/>
<feGaussianBlur stdDeviation="2.3519" result="effect1_foregroundBlur_963_8682"/>
</filter>
<filter id="filter34_f_963_8682" x="632.852" y="-213.517" width="649.385" height="688.092" filterUnits="userSpaceOnUse" color-interpolation-filters="sRGB">
<feFlood flood-opacity="0" result="BackgroundImageFix"/>
<feBlend mode="normal" in="SourceGraphic" in2="BackgroundImageFix" result="shape"/>
<feGaussianBlur stdDeviation="8.23164" result="effect1_foregroundBlur_963_8682"/>
</filter>
<filter id="filter35_f_963_8682" x="572.785" y="-494.625" width="844.426" height="935.179" filterUnits="userSpaceOnUse" color-interpolation-filters="sRGB">
<feFlood flood-opacity="0" result="BackgroundImageFix"/>
<feBlend mode="normal" in="SourceGraphic" in2="BackgroundImageFix" result="shape"/>
<feGaussianBlur stdDeviation="11.7595" result="effect1_foregroundBlur_963_8682"/>
</filter>
<filter id="filter36_f_963_8682" x="489.001" y="-450.582" width="1068.92" height="893.092" filterUnits="userSpaceOnUse" color-interpolation-filters="sRGB">
<feFlood flood-opacity="0" result="BackgroundImageFix"/>
<feBlend mode="normal" in="SourceGraphic" in2="BackgroundImageFix" result="shape"/>
<feGaussianBlur stdDeviation="31.7506" result="effect1_foregroundBlur_963_8682"/>
</filter>
<filter id="filter37_f_963_8682" x="524.928" y="-576.607" width="1235.08" height="1078.36" filterUnits="userSpaceOnUse" color-interpolation-filters="sRGB">
<feFlood flood-opacity="0" result="BackgroundImageFix"/>
<feBlend mode="normal" in="SourceGraphic" in2="BackgroundImageFix" result="shape"/>
<feGaussianBlur stdDeviation="78.7886" result="effect1_foregroundBlur_963_8682"/>
</filter>
<filter id="filter38_f_963_8682" x="539.392" y="-508.382" width="904.344" height="914.769" filterUnits="userSpaceOnUse" color-interpolation-filters="sRGB">
<feFlood flood-opacity="0" result="BackgroundImageFix"/>
<feBlend mode="normal" in="SourceGraphic" in2="BackgroundImageFix" result="shape"/>
<feGaussianBlur stdDeviation="36.4544" result="effect1_foregroundBlur_963_8682"/>
</filter>
<filter id="filter40_f_963_8682" x="662.534" y="-624.945" width="711.152" height="792.936" filterUnits="userSpaceOnUse" color-interpolation-filters="sRGB">
<feFlood flood-opacity="0" result="BackgroundImageFix"/>
<feBlend mode="normal" in="SourceGraphic" in2="BackgroundImageFix" result="shape"/>
<feGaussianBlur stdDeviation="8.23164" result="effect1_foregroundBlur_963_8682"/>
</filter>
<filter id="filter41_f_963_8682" x="661.7" y="-645.787" width="897.355" height="970.506" filterUnits="userSpaceOnUse" color-interpolation-filters="sRGB">
<feFlood flood-opacity="0" result="BackgroundImageFix"/>
<feBlend mode="normal" in="SourceGraphic" in2="BackgroundImageFix" result="shape"/>
<feGaussianBlur stdDeviation="11.7595" result="effect1_foregroundBlur_963_8682"/>
</filter>
<filter id="filter42_f_963_8682" x="641.111" y="-688.988" width="829.469" height="1113.22" filterUnits="userSpaceOnUse" color-interpolation-filters="sRGB">
<feFlood flood-opacity="0" result="BackgroundImageFix"/>
<feBlend mode="normal" in="SourceGraphic" in2="BackgroundImageFix" result="shape"/>
<feGaussianBlur stdDeviation="31.7506" result="effect1_foregroundBlur_963_8682"/>
</filter>
<filter id="filter43_f_963_8682" x="567.968" y="-704.136" width="1119.26" height="1362.92" filterUnits="userSpaceOnUse" color-interpolation-filters="sRGB">
<feFlood flood-opacity="0" result="BackgroundImageFix"/>
<feBlend mode="normal" in="SourceGraphic" in2="BackgroundImageFix" result="shape"/>
<feGaussianBlur stdDeviation="78.7886" result="effect1_foregroundBlur_963_8682"/>
</filter>
<filter id="filter44_f_963_8682" x="703.44" y="-656.741" width="878.781" height="936.502" filterUnits="userSpaceOnUse" color-interpolation-filters="sRGB">
<feFlood flood-opacity="0" result="BackgroundImageFix"/>
<feBlend mode="normal" in="SourceGraphic" in2="BackgroundImageFix" result="shape"/>
<feGaussianBlur stdDeviation="36.4544" result="effect1_foregroundBlur_963_8682"/>
</filter>
<filter id="filter45_f_963_8682" x="755.044" y="-657.374" width="752.536" height="1017.12" filterUnits="userSpaceOnUse" color-interpolation-filters="sRGB">
<feFlood flood-opacity="0" result="BackgroundImageFix"/>
<feBlend mode="normal" in="SourceGraphic" in2="BackgroundImageFix" result="shape"/>
<feGaussianBlur stdDeviation="49.3899" result="effect1_foregroundBlur_963_8682"/>
</filter>
<linearGradient id="paint0_linear_963_8682" x1="593.293" y1="760.092" x2="316.611" y2="1448.94" gradientUnits="userSpaceOnUse">
<stop stop-color="#C4C4C4"/>
<stop offset="0.943414" stop-color="#C4C4C4" stop-opacity="0"/>
</linearGradient>
<linearGradient id="paint1_linear_963_8682" x1="351.092" y1="1049.6" x2="1075.54" y2="1500.78" gradientUnits="userSpaceOnUse">
<stop stop-color="#C4C4C4"/>
<stop offset="1" stop-color="#C4C4C4" stop-opacity="0"/>
</linearGradient>
<linearGradient id="paint2_linear_963_8682" x1="1238.64" y1="588.11" x2="1147.37" y2="1660.58" gradientUnits="userSpaceOnUse">
<stop stop-color="#C4C4C4"/>
<stop offset="1" stop-color="#C4C4C4" stop-opacity="0"/>
</linearGradient>
<linearGradient id="paint3_linear_963_8682" x1="1392.74" y1="1160.28" x2="522.016" y2="1173.31" gradientUnits="userSpaceOnUse">
<stop stop-color="#C4C4C4"/>
<stop offset="1" stop-color="#C4C4C4" stop-opacity="0"/>
</linearGradient>
<linearGradient id="paint4_linear_963_8682" x1="128.964" y1="-206.371" x2="-741.759" y2="-193.333" gradientUnits="userSpaceOnUse">
<stop stop-color="#C4C4C4"/>
<stop offset="1" stop-color="#C4C4C4" stop-opacity="0"/>
</linearGradient>
<linearGradient id="paint5_linear_963_8682" x1="1314.95" y1="136.649" x2="1021.35" y2="538.062" gradientUnits="userSpaceOnUse">
<stop stop-color="#C4C4C4"/>
<stop offset="1" stop-color="#C4C4C4" stop-opacity="0"/>
</linearGradient>
<linearGradient id="paint6_linear_963_8682" x1="1648.78" y1="115.036" x2="955.104" y2="135.751" gradientUnits="userSpaceOnUse">
<stop stop-color="#C4C4C4"/>
<stop offset="1" stop-color="#C4C4C4" stop-opacity="0"/>
</linearGradient>
<linearGradient id="paint7_linear_963_8682" x1="1190.64" y1="268.905" x2="717.307" y2="190.976" gradientUnits="userSpaceOnUse">
<stop stop-color="#C4C4C4"/>
<stop offset="0.943414" stop-color="#C4C4C4" stop-opacity="0"/>
</linearGradient>
<linearGradient id="paint8_linear_963_8682" x1="949.015" y1="308.789" x2="936.976" y2="-255.104" gradientUnits="userSpaceOnUse">
<stop stop-color="#C4C4C4"/>
<stop offset="1" stop-color="#C4C4C4" stop-opacity="0"/>
</linearGradient>
<linearGradient id="paint9_linear_963_8682" x1="694.894" y1="-441.386" x2="1396.55" y2="229.202" gradientUnits="userSpaceOnUse">
<stop stop-color="#C4C4C4"/>
<stop offset="1" stop-color="#C4C4C4" stop-opacity="0"/>
</linearGradient>
<clipPath id="clip0_963_8682">
<path d="M0 0H1918V1049C1918 1159.46 1828.46 1249 1718 1249H200C89.5431 1249 0 1159.46 0 1049V0Z" fill="white"/>
</clipPath>
</defs>
</svg>
